<svg width="391" height="88" viewBox="0 0 391 88" fill="none" xmlns="http://www.w3.org/2000/svg">
<path d="M8.95736 83.1289L15.4397 74.7625L0 87.0176C8.36806 88.903 16.1468 86.5462 28.64 80.8901C38.6345 76.3651 51.662 78.3762 56.9264 79.9474C57.28 80.6544 58.5764 82.1156 60.9336 82.3041C63.2908 82.4926 64.3516 80.8115 64.5873 79.9474C80.9934 77.9677 89.8879 79.751 92.2844 80.8901C111.613 89.28 120.217 88.3923 122.103 86.8997L106.428 74.7625L113.028 83.1289C109.61 83.1289 105.131 82.0684 92.2844 75.9409C79.4377 69.8134 67.4159 76.8836 64.2337 79.2403C61.6879 81.1257 59.0086 80.0259 57.9871 79.2403C53.3906 75.6659 41.086 70.0019 28.64 75.9409C16.194 81.8799 10.3324 83.2075 8.95736 83.1289Z" fill="#FF5076"/>
<path d="M101.589 71.7477L94.7878 65.9082L109.446 73.0323C106.827 74.4338 99.0797 76.5594 89.0419 73.8499C79.0042 71.1404 67.1918 75.3681 62.5404 77.8207C67.1136 69.6455 82.7097 68.5476 89.0419 70.2294C94.7878 71.7554 99.0093 72.0202 101.589 71.7477Z" fill="#7034B2"/>
<path d="M20.1398 71.7477L26.941 65.9082L12.2831 73.0323C14.902 74.4338 22.6492 76.5594 32.687 73.8499C42.7247 71.1404 54.5371 75.3681 59.1885 77.8207C54.6152 69.6455 39.0192 68.5476 32.687 70.2294C26.941 71.7554 22.7196 72.0202 20.1398 71.7477Z" fill="#7034B2"/>
<path d="M90.7829 64.6528L84.2016 57.7189L93.2509 62.3023L96.5415 64.1827C94.9572 65.9319 90.7829 68.4135 79.5007 68.4135C73.272 68.4135 64.9279 73.2319 62.9301 75.5823C66.5732 69.2361 71.5126 66.1428 76.6802 65.828C81.3692 65.5423 88.9301 65.5204 90.7829 64.6528Z" fill="#57B7FF"/>
<path d="M31.1401 63.6909L38.5022 55.1225L28.8253 61.0013L25.2872 63.3939C26.7516 65.407 30.8013 68.1749 42.3512 67.6588C48.7277 67.3738 56.8357 72.7372 58.6692 75.4483C55.5113 68.0483 50.7333 64.586 45.4716 64.447C40.697 64.3208 32.9587 64.6407 31.1401 63.6909Z" fill="#57B7FF"/>
<path d="M62.4638 55.3255C62.648 55.0709 63.0009 54.7938 63.4829 54.5159C66.5194 52.5916 75.2936 49.0787 81.2969 53.596C87.2125 58.0472 82.4908 62.1277 79.5638 63.3959L61.4239 71.1207C63.3881 69.622 67.3165 65.7019 70.7827 64.0878C76.6752 61.3438 80.4307 59.5555 79.2171 56.363C76.987 50.4963 66.9307 52.5278 63.4829 54.5159C62.9545 54.8508 62.5998 55.1375 62.4638 55.3255Z" fill="#E53C38"/>
<path d="M45.4285 61.1861C38.632 57.4545 42.0844 53.0621 44.5229 51.3906C42.9497 51.9737 39.305 53.8659 39.0951 56.9881C38.8208 61.0695 44.2092 63.0908 47.1984 64.1015C47.1984 64.1015 51.9125 65.8558 54.8681 67.1334C57.9084 68.4476 62.5378 70.7484 62.5378 70.7484C60.4139 67.5999 53.0982 64.5679 53.0982 64.5679C53.0982 64.5679 48.0139 62.6057 45.4285 61.1861Z" fill="#E53C38"/>
<path d="M21.6813 56.5283L39.6622 51.2398L38.0169 48.3018L21.6813 56.5283Z" fill="url(#paint0_linear_129_99)"/>
<path d="M40.3662 54.2955C38.0615 50.8076 36.4884 46.3528 36.2815 42.171C36.0746 37.9892 36.9942 33.8287 38.9433 30.1283C40.8924 26.4279 43.7988 23.3246 47.356 21.1456C50.9133 18.9666 54.9896 17.7926 59.1552 17.7474C63.3208 17.7023 67.4213 18.7876 71.0245 20.889C74.6276 22.9904 77.5999 26.03 79.6279 29.6873C81.656 33.3447 82.6646 37.4842 82.5475 41.6695C82.4304 45.8548 81.1919 49.9309 78.9626 53.4679L75.8325 51.4749C77.705 48.504 78.7452 45.0803 78.8436 41.5648C78.9419 38.0494 78.0947 34.5724 76.3913 31.5004C74.6878 28.4284 72.1912 25.8753 69.1648 24.1102C66.1383 22.3451 62.694 21.4335 59.1951 21.4714C55.6962 21.5094 52.2723 22.4954 49.2844 24.3257C46.2965 26.1559 43.8553 28.7626 42.2181 31.8708C40.581 34.9789 39.8086 38.4735 39.9823 41.986C40.1561 45.4986 41.2696 48.8989 43.2054 51.8285L41.7765 53.2378L40.3662 54.2955Z" fill="#FFD83D"/>
<path d="M18.7425 41.2499L36.6058 42.8952V38.8994L18.7425 41.2499Z" fill="url(#paint1_linear_129_99)"/>
<path d="M21.5652 25.5017L37.4307 33.8458L38.9584 30.5551L21.5652 25.5017Z" fill="url(#paint2_linear_129_99)"/>
<path d="M31.0845 12.2031L41.779 26.0707L44.3645 23.3863L31.0845 12.2031Z" fill="url(#paint3_linear_129_99)"/>
<path d="M43.6591 2.82031L49.1827 20.2136L52.4733 18.9208L43.6591 2.82031Z" fill="url(#paint4_linear_129_99)"/>
<path d="M59.7578 0L57.76 17.8634H61.6382L59.7578 0Z" fill="url(#paint5_linear_129_99)"/>
<path d="M75.0357 3.76071L66.8092 18.9211L70.2173 20.4488L75.0357 3.76071Z" fill="url(#paint6_linear_129_99)"/>
<path d="M88.7858 12.1048L74.5656 23.5044L77.1511 26.2074L88.7858 12.1048Z" fill="url(#paint7_linear_129_99)"/>
<path d="M97.7175 25.2673L80.0892 30.7908L81.4994 34.3165L97.7175 25.2673Z" fill="url(#paint8_linear_129_99)"/>
<path d="M100.656 41.1327L82.4396 39.2524V43.1306L100.656 41.1327Z" fill="url(#paint9_linear_129_99)"/>
<path d="M97.1299 56.6457L81.4994 48.0665L79.6191 51.5922L97.1299 56.6457Z" fill="url(#paint10_linear_129_99)"/>
<circle cx="59.7298" cy="42.5763" r="4.68865" fill="#E53C38"/>
<path d="M44.8585 34.1207C46.342 39.342 49.4957 41.6021 50.7885 41.9206C51.5942 41.371 52.8391 40.8249 54.0586 41.2052C54.0987 40.3121 54.9022 38.796 55.7929 38.0941C55.5041 37.6418 54.4888 36.7012 54.7174 34.8729C51.295 32.5323 46.7188 33.3962 44.8585 34.1207Z" fill="#57B7FF"/>
<path d="M59.6407 25.3848C55.8026 29.2229 55.364 33.078 55.7154 34.3623C56.5877 34.7984 57.6708 35.6198 57.9325 36.8701C58.7321 36.4703 60.4476 36.434 61.4944 36.8701C61.7488 36.3976 62.076 35.0528 63.7842 34.3623C64.1622 30.2333 61.1794 26.6569 59.6407 25.3848Z" fill="#FFBA00"/>
<path d="M74.6931 33.877C69.326 32.173 65.5817 33.6138 64.5741 34.5527C64.5947 35.5663 64.3639 36.9588 63.3442 37.7987C64.0959 38.3451 64.9559 39.9105 65.0607 41.085C65.6163 41.0936 67.0064 40.7517 68.4625 41.9972C72.4286 40.3695 74.2687 35.9055 74.6931 33.877Z" fill="#57B7FF"/>
<path d="M50.8584 27.7842C50.5385 29.0054 50.4101 31.3461 50.3859 32.3638C51.3914 32.4728 53.5916 32.8799 54.3476 33.6359C54.2604 32.3856 54.9412 30.4496 55.2926 29.6378C54.5899 29.1532 52.7193 28.104 50.8584 27.7842Z" fill="#FF5076"/>
<path d="M68.2119 27.6932C66.9826 27.9805 64.8526 28.9596 63.9413 29.4132C64.3143 30.3534 64.9814 32.4892 64.6657 33.5107C65.7307 32.8498 67.7607 32.5482 68.6426 32.48C68.7431 31.6323 68.7978 29.4883 68.2119 27.6932Z" fill="#FF5076"/>
<path d="M76.7956 42.4081C75.9019 41.5165 73.9448 40.2262 73.0779 39.6925C72.4771 40.5061 71.0168 42.2014 69.9829 42.4735C71.1068 43.0282 72.4361 44.5918 72.9602 45.3043C73.7329 44.9415 75.5817 43.8544 76.7956 42.4081Z" fill="#FF5076"/>
<path d="M42.4802 42.7513C43.3801 43.6367 45.3463 44.9132 46.2168 45.4409C46.812 44.623 48.2603 42.9175 49.2923 42.6382C48.1645 42.0914 46.8243 40.5371 46.2952 39.8283C45.5251 40.1965 43.684 41.2966 42.4802 42.7513Z" fill="#FF5076"/>
<path d="M56.5342 53.0411L63.0932 56.5729H55.5251C54.4151 56.5729 52.2153 56.4115 52.6997 54.1511C53.184 51.8908 55.4578 52.4693 56.5342 53.0411Z" fill="#E53C38"/>
<path d="M62.9899 55.5636L60.8708 54.2518L63.5954 52.94C65.3108 52.1327 66.9641 52.992 66.6838 55.1329C66.4035 57.2737 63.6128 56.1052 62.9899 55.5636Z" fill="#E53C38"/>
<path d="M62.3854 52.0322V49.9131L64.2017 52.0322C64.5044 52.4022 65.453 53.1018 66.8253 52.9403C68.0362 52.7979 67.8344 51.3763 67.1281 51.0231C66.4217 50.6699 65.8162 50.9222 65.8162 50.9222L62.3854 46.0786H60.6699V44.8677C63.0917 43.8586 61.8808 41.3359 60.8717 40.7305L60.2663 40.5286L59.6608 40.4277L59.0554 40.5286L58.4499 40.7305C56.23 42.2441 57.5418 44.565 58.4499 44.9686V46.0786H56.7345L53.1018 50.9222C53.1018 50.9222 52.5973 50.6956 51.8909 51.1621C51.1845 51.6285 51.1498 52.8429 52.4964 53.1422C53.4045 53.344 54.6827 52.7385 55.0191 52.3349L56.9363 49.9131V52.3349L59.8627 53.5458L62.3854 52.0322Z" fill="#031516"/>
<path d="M147.564 22.6604V26.559H144.678V44.6833H140.065V40.368L138.398 39.5347L132.714 45.0107H127.238V44.5941L134.886 37.7788L131.494 36.0527L127.327 39.3264H122V38.7907L127.952 34.148C126.722 33.3544 125.79 32.4814 125.155 31.5291C124.52 30.5767 124.202 29.4954 124.202 28.2852C124.202 27.1543 124.46 26.1424 124.976 25.2496C125.512 24.3567 126.266 23.6623 127.238 23.1663C128.23 22.6505 129.391 22.3925 130.72 22.3925C132.069 22.3925 133.24 22.6405 134.232 23.1366C135.244 23.6127 136.017 24.2873 136.553 25.1603C137.089 26.0134 137.357 26.9856 137.357 28.0768C137.357 29.1681 137.148 30.1303 136.732 30.9636C136.315 31.7771 135.611 32.6302 134.619 33.5231L140.065 36.261V22.6604H147.564ZM128.547 28.4935C128.547 29.7633 129.291 30.795 130.779 31.5886L131.077 31.7374C131.712 31.2612 132.208 30.7751 132.565 30.2791C132.942 29.7831 133.131 29.2077 133.131 28.553C133.131 27.938 132.922 27.4122 132.506 26.9757C132.109 26.5194 131.563 26.2813 130.869 26.2614C130.194 26.2614 129.639 26.4797 129.202 26.9162C128.766 27.3527 128.547 27.8784 128.547 28.4935Z" fill="black"/>
<path d="M157.068 22.6604V26.559H154.151V44.6833H149.479V26.559H146.562V22.6604H149.628V21.5295C149.628 19.1288 148.794 17.9284 147.128 17.9284C145.382 17.9284 144.509 19.1288 144.509 21.5295V23.702H139.985V21.7676C139.985 19.3669 140.551 17.4721 141.682 16.0833C142.813 14.6944 144.628 14 147.128 14C151.81 14 154.151 16.5892 154.151 21.7676V22.6604H157.068Z" fill="black"/>
<path d="M183.533 26.559H180.616V44.6833H175.944V38.0467L175.854 38.1657L169.962 45.4571H164.902L170.111 39.5942C168.424 39.2966 167.135 38.4931 166.242 37.1836C165.349 35.8543 164.902 34.2076 164.902 32.2433V26.559H162.373V22.6604H183.533V26.559ZM175.944 26.559H169.575V32.2433C169.575 33.3941 169.833 34.3068 170.349 34.9813C170.884 35.6559 171.688 35.9932 172.759 35.9932C173.771 35.9932 174.555 35.6658 175.11 35.0111C175.666 34.3564 175.944 33.5231 175.944 32.5112V26.559Z" fill="black"/>
<path d="M185.43 44.6833V26.559H182.514V22.6604H193.019V26.559H190.103V44.6833H185.43Z" fill="black"/>
<path d="M219.695 26.559H216.748V44.6833H212.076V26.559H208.088V33.8207C208.088 35.7849 207.523 37.3721 206.392 38.5824C205.261 39.7728 203.634 40.368 201.511 40.368C199.388 40.368 197.761 39.753 196.63 38.5229C195.499 37.2927 194.934 35.7253 194.934 33.8207V26.559H192.017V22.6604H219.695V26.559ZM203.505 26.559H199.517V34.2373C199.517 34.892 199.696 35.4277 200.053 35.8444C200.43 36.2412 200.926 36.4396 201.541 36.4396C202.176 36.4396 202.662 36.2412 202.999 35.8444C203.336 35.4476 203.505 34.9119 203.505 34.2373V26.559Z" fill="black"/>
<path d="M244.202 26.559H241.286V44.6833H236.584V33.8207H232.834C233.35 34.7532 233.607 35.7749 233.607 36.886C233.607 38.0963 233.32 39.1379 232.744 40.0109C232.189 40.8839 231.435 41.5386 230.483 41.9751C229.55 42.4116 228.508 42.6298 227.358 42.6298C226.167 42.6298 225.056 42.3818 224.025 41.8858C223.013 41.37 222.199 40.6359 221.584 39.6835C220.969 38.7113 220.662 37.5804 220.662 36.2908C220.662 34.9218 220.979 33.7611 221.614 32.8088C222.249 31.8366 223.102 31.1124 224.173 30.6363C225.245 30.1601 226.435 29.922 227.745 29.922H236.584V26.559H218.697V22.6604H244.202V26.559ZM227.417 38.6717C228.151 38.6717 228.747 38.4534 229.203 38.0169C229.659 37.5606 229.887 36.9753 229.887 36.261C229.887 35.5468 229.659 34.9615 229.203 34.5052C228.747 34.0488 228.151 33.8207 227.417 33.8207C226.683 33.8207 226.078 34.0488 225.602 34.5052C225.126 34.9615 224.888 35.5468 224.888 36.261C224.888 36.9753 225.116 37.5606 225.572 38.0169C226.048 38.4534 226.663 38.6717 227.417 38.6717Z" fill="black"/>
<path d="M246.114 44.6833V26.559H243.198V22.6604H253.703V26.559H250.787V44.6833H246.114Z" fill="black"/>
<path d="M277.343 22.6604V26.559H274.427V44.6833H269.754V39.0288C269.258 39.9415 268.445 40.7053 267.314 41.3204C266.203 41.9354 264.864 42.243 263.296 42.243C261.61 42.243 260.122 41.9057 258.832 41.2311C257.562 40.5367 256.58 39.5546 255.886 38.2848C255.191 36.9951 254.844 35.4873 254.844 33.7611C254.844 32.9477 254.894 32.2334 254.993 31.6184H257.582C259.288 31.6184 260.628 31.3704 261.6 30.8743C262.592 30.3783 263.088 29.5351 263.088 28.3447C263.088 27.7693 262.929 27.3031 262.612 26.9459C262.294 26.569 261.858 26.3805 261.302 26.3805C260.727 26.3805 260.27 26.569 259.933 26.9459C259.596 27.3031 259.427 27.7991 259.427 28.434C259.427 28.6919 259.467 29.0391 259.546 29.4756H255.32C255.241 28.9597 255.201 28.5728 255.201 28.3149C255.201 27.0451 255.479 25.9638 256.035 25.071C256.59 24.1782 257.334 23.5135 258.267 23.077C259.199 22.6207 260.231 22.3925 261.362 22.3925C262.572 22.3925 263.633 22.6405 264.546 23.1366C265.479 23.6326 266.203 24.3468 266.719 25.2793C267.234 26.192 267.492 27.2535 267.492 28.4637C267.492 30.4478 266.798 32.0251 265.409 33.1957C264.04 34.3663 262.056 34.9516 259.457 34.9516H259.397C259.517 35.9238 259.953 36.7372 260.707 37.392C261.461 38.0268 262.562 38.3443 264.01 38.3443C265.082 38.3443 266.054 38.1161 266.927 37.6598C267.8 37.1836 268.484 36.4892 268.98 35.5765C269.496 34.644 269.754 33.5231 269.754 32.2136V22.6604H277.343Z" fill="black"/>
<path d="M309.243 26.559H306.326V44.6833H301.654V34.148H298.231V35.0409C298.231 36.3305 297.953 37.4812 297.398 38.4931C296.862 39.505 296.088 40.2986 295.076 40.874C294.065 41.4295 292.874 41.7073 291.505 41.7073C289.323 41.7073 287.636 41.1021 286.446 39.8919C285.275 38.6617 284.69 37.0447 284.69 35.0409V30.1601H289.392V34.9218C289.392 35.7749 289.571 36.4396 289.928 36.9158C290.305 37.392 290.84 37.63 291.535 37.63C292.209 37.63 292.725 37.392 293.082 36.9158C293.459 36.4396 293.648 35.7749 293.648 34.9218V30.1601H301.654V26.559H282.636V22.6604H309.243V26.559Z" fill="black"/>
<path d="M318.747 22.6604V26.559H315.83V44.6833H311.158V26.559H308.241V22.6604H311.307V21.5295C311.307 19.1288 310.473 17.9284 308.807 17.9284C307.061 17.9284 306.188 19.1288 306.188 21.5295V23.702H301.664V21.7676C301.664 19.3669 302.229 17.4721 303.36 16.0833C304.491 14.6944 306.307 14 308.807 14C313.489 14 315.83 16.5892 315.83 21.7676V22.6604H318.747Z" fill="black"/>
<path d="M344.914 22.6604V26.559H341.997V44.6833H337.444V40.6954C336.928 41.3898 336.273 41.9255 335.48 42.3025C334.706 42.6596 333.813 42.8382 332.801 42.8382C331.432 42.8382 330.242 42.5306 329.23 41.9156C328.238 41.3005 327.474 40.4474 326.938 39.3562C326.403 38.2649 326.135 37.0348 326.135 35.6658C326.135 34.3365 326.403 33.156 326.938 32.1243C327.474 31.0728 328.248 30.2494 329.26 29.6542C330.272 29.0589 331.452 28.7613 332.801 28.7613C333.793 28.7613 334.686 28.9399 335.48 29.297C336.273 29.6542 336.928 30.17 337.444 30.8446V26.559H324.052V22.6604H344.914ZM334.081 39.1181C335.132 39.1181 335.956 38.7907 336.551 38.136C337.146 37.4812 337.444 36.7075 337.444 35.8146V35.7849C337.444 34.8722 337.146 34.0984 336.551 33.4635C335.956 32.8286 335.132 32.5112 334.081 32.5112C333.089 32.5112 332.275 32.8187 331.641 33.4338C331.025 34.029 330.718 34.8127 330.718 35.7849C330.718 36.7769 331.025 37.5804 331.641 38.1955C332.275 38.8105 333.089 39.1181 334.081 39.1181Z" fill="black"/>
<path d="M346.818 44.6833V26.559H343.902V22.6604H354.407V26.559H351.491V44.6833H346.818Z" fill="black"/>
<path d="M381.083 26.559H378.137V44.6833H373.464V26.559H369.476V33.8207C369.476 35.7849 368.911 37.3721 367.78 38.5824C366.649 39.7728 365.022 40.368 362.899 40.368C360.776 40.368 359.149 39.753 358.018 38.5229C356.887 37.2927 356.322 35.7253 356.322 33.8207V26.559H353.405V22.6604H381.083V26.559ZM364.893 26.559H360.905V34.2373C360.905 34.892 361.084 35.4277 361.441 35.8444C361.818 36.2412 362.314 36.4396 362.929 36.4396C363.564 36.4396 364.05 36.2412 364.387 35.8444C364.724 35.4476 364.893 34.9119 364.893 34.2373V26.559Z" fill="black"/>
<path d="M390.591 22.6604V26.559H387.674V44.6833H383.002V26.559H380.085V22.6604H383.151V21.5295C383.151 19.1288 382.318 17.9284 380.651 17.9284C378.905 17.9284 378.032 19.1288 378.032 21.5295V23.702H373.508V21.7676C373.508 19.3669 374.074 17.4721 375.205 16.0833C376.336 14.6944 378.151 14 380.651 14C385.333 14 387.674 16.5892 387.674 21.7676V22.6604H390.591Z" fill="black"/>
<path d="M166.633 76.73H164.04V59.147H166.633V76.73Z" fill="#FF5076"/>
<path d="M172.122 76.73H169.53V59.147H172.122V76.73Z" fill="#FF5076"/>
<path d="M190.34 62.4781H188.299V74.4399H185.946V69.7839L185.744 70.0299L181.699 74.8373H179.125L182.581 71.0141C181.429 70.9006 180.547 70.4274 179.934 69.5946C179.333 68.7492 179.033 67.6641 179.033 66.3392V62.4781H177.286V60.434H190.34V62.4781ZM185.946 62.4781H181.423V66.3392C181.423 67.1972 181.607 67.8723 181.975 68.3644C182.355 68.8438 182.925 69.0836 183.685 69.0836C184.395 69.0836 184.947 68.8501 185.339 68.3833C185.744 67.9038 185.946 67.3108 185.946 66.6042V62.4781Z" fill="#FF5076"/>
<path d="M185.853 60.5097C185.302 59.6265 184.855 58.9893 184.511 58.5981C184.168 58.2069 183.825 57.9483 183.482 57.8221C183.126 57.6959 182.648 57.6328 182.048 57.6328H181.147V55.6455H181.993C182.973 55.6581 183.751 55.7654 184.327 55.9673C184.904 56.1692 185.474 56.6108 186.037 57.2921C186.601 57.9609 187.288 59.0334 188.096 60.5097H185.853Z" fill="#FF5076"/>
<path d="M205.066 62.4781H203.025V74.4399H200.635V67.7208H197.896V68.8375C197.896 70.1498 197.571 71.1718 196.922 71.9037C196.284 72.6355 195.365 73.0014 194.164 73.0014C193.024 73.0014 192.105 72.6671 191.406 71.9983C190.719 71.3296 190.376 70.4463 190.376 69.3486C190.376 68.1877 190.738 67.2981 191.461 66.6799C192.196 66.049 193.14 65.7335 194.292 65.7335H195.69V62.4781H189.2V60.434H205.066V62.4781ZM200.635 62.4781H197.896V65.7335H200.635V62.4781ZM195.69 67.7208H194.366C193.827 67.7208 193.392 67.8659 193.061 68.1562C192.742 68.4338 192.583 68.8249 192.583 69.3296C192.583 69.8217 192.723 70.2129 193.005 70.5031C193.3 70.7933 193.673 70.9384 194.127 70.9384C194.617 70.9384 194.997 70.7618 195.267 70.4085C195.549 70.0552 195.69 69.5757 195.69 68.97V67.7208Z" fill="#FF5076"/>
<path d="M226.569 60.434V62.4781H224.528V74.4399H222.175V71.0141C221.648 71.7712 220.845 72.1497 219.766 72.1497C219.631 72.1497 219.429 72.1371 219.16 72.1119C218.743 72.8437 218.179 73.4304 217.468 73.8721C216.769 74.3137 215.948 74.5345 215.004 74.5345C213.472 74.5345 212.259 74.0866 211.364 73.1907C210.482 72.2948 210.04 71.0457 210.04 69.4432V66.8502H210.592C211.413 66.8502 212.038 66.6483 212.467 66.2445C212.896 65.8408 213.111 65.172 213.111 64.2383V62.4781H208.331V60.434H226.569ZM215.06 72.4336C216.077 72.4336 216.837 72.0299 217.339 71.2223C216.972 70.869 216.69 70.44 216.494 69.9353C216.298 69.418 216.199 68.8501 216.199 68.2319C216.199 67.4874 216.353 66.825 216.659 66.2445C216.966 65.6515 217.388 65.191 217.928 64.8629C218.479 64.5348 219.092 64.3708 219.766 64.3708C220.82 64.3708 221.623 64.7493 222.175 65.5064V62.4781H215.501V64.5601C215.501 65.8218 215.219 66.7871 214.655 67.4559C214.091 68.1246 213.337 68.4968 212.394 68.5726V69.7271C212.394 70.5346 212.627 71.1908 213.092 71.6955C213.57 72.1876 214.226 72.4336 215.06 72.4336ZM220.281 70.276C220.882 70.276 221.347 70.0741 221.678 69.6703C222.009 69.2665 222.175 68.7934 222.175 68.2508C222.175 67.7082 222.009 67.2414 221.678 66.8502C221.36 66.4464 220.894 66.2445 220.281 66.2445C219.717 66.2445 219.245 66.4275 218.865 66.7934C218.498 67.1467 218.314 67.6262 218.314 68.2319C218.314 68.8754 218.498 69.3801 218.865 69.746C219.245 70.0993 219.717 70.276 220.281 70.276Z" fill="#FF5076"/>
<path d="M232.07 60.434V62.4781H230.029V74.4399H227.657V62.4781H225.616V60.434H227.731C227.191 59.576 226.75 58.9577 226.407 58.5792C226.076 58.188 225.739 57.9357 225.396 57.8221C225.053 57.6959 224.581 57.6328 223.98 57.6328H223.079V55.6455H223.925C224.906 55.6581 225.678 55.7654 226.242 55.9673C226.818 56.1692 227.381 56.6045 227.933 57.2732C228.497 57.9293 229.183 58.9829 229.992 60.434H232.07Z" fill="#FF5076"/>
<path d="M244.693 62.4781V64.6547C245.44 64.9449 246.035 65.4559 246.476 66.1878C246.929 66.907 247.156 67.7966 247.156 68.8565C247.156 69.7776 246.979 70.5977 246.623 71.3169C246.268 72.0362 245.741 72.5977 245.042 73.0014C244.356 73.4052 243.522 73.6071 242.541 73.6071C242.443 73.6071 242.235 73.5945 241.916 73.5692V71.4305L242.413 71.4684C243.136 71.4684 243.706 71.2349 244.123 70.7681C244.539 70.3012 244.748 69.6766 244.748 68.8943C244.748 68.2003 244.576 67.6325 244.233 67.1909C243.902 66.7493 243.43 66.5285 242.817 66.5285C242.168 66.5285 241.677 66.7808 241.346 67.2855C241.028 67.7776 240.868 68.4274 240.868 69.235V69.6325H238.883V69.235C238.883 68.4401 238.723 67.7902 238.405 67.2855C238.086 66.7808 237.614 66.5285 236.989 66.5285C236.352 66.5285 235.861 66.7493 235.518 67.1909C235.175 67.6199 235.003 68.1877 235.003 68.8943C235.003 69.6766 235.212 70.3012 235.629 70.7681C236.045 71.2349 236.615 71.4684 237.338 71.4684L237.835 71.4305V73.5692C237.516 73.5945 237.308 73.6071 237.21 73.6071C236.241 73.6071 235.408 73.4052 234.709 73.0014C234.011 72.585 233.484 72.0235 233.128 71.3169C232.773 70.5977 232.595 69.7776 232.595 68.8565C232.595 67.8975 232.773 67.0836 233.128 66.4149C233.484 65.7461 233.968 65.2414 234.581 64.9007C235.206 64.5601 235.898 64.3897 236.658 64.3897C237.504 64.3897 238.184 64.6105 238.699 65.0522C239.226 65.4938 239.606 66.0616 239.839 66.7556H239.894C240.102 66.1751 240.403 65.6831 240.795 65.2793C241.199 64.8755 241.72 64.6042 242.358 64.4654V62.4781H231.124V60.434H248.609V62.4781H244.693Z" fill="#FF5076"/>
<path d="M258.49 66.3013C257.681 66.3013 257.025 66.5158 256.522 66.9448C256.02 67.3739 255.769 67.9732 255.769 68.7429C255.769 69.4369 255.971 69.9921 256.375 70.4085C256.78 70.8122 257.319 71.0141 257.993 71.0141C258.545 71.0141 259.017 70.8375 259.409 70.4842C259.813 70.1309 260.016 69.6261 260.016 68.97H262.204V74.9509H259.887V71.828C259.617 72.1939 259.262 72.4778 258.821 72.6797C258.379 72.8689 257.877 72.9636 257.313 72.9636C256.578 72.9636 255.91 72.7996 255.309 72.4715C254.708 72.1434 254.23 71.6576 253.875 71.0141C253.52 70.3706 253.342 69.5883 253.342 68.6672C253.342 67.7208 253.55 66.9133 253.967 66.2445C254.396 65.5632 254.978 65.0522 255.714 64.7115C256.461 64.3708 257.307 64.2004 258.251 64.2004H259.17V62.4781H251.871V60.434H263.877L263.858 62.4781H261.56V66.3013H258.49Z" fill="#FF5076"/>
<path d="M259.127 60.5097C258.576 59.6265 258.128 58.9893 257.785 58.5981C257.442 58.2069 257.099 57.9483 256.756 57.8221C256.4 57.6959 255.922 57.6328 255.322 57.6328H254.421V55.6455H255.266C256.247 55.6581 257.025 55.7654 257.601 55.9673C258.177 56.1692 258.747 56.6108 259.311 57.2921C259.875 57.9609 260.561 59.0334 261.37 60.5097H259.127Z" fill="#FF5076"/>
<path d="M275.815 60.434V62.4781H273.792V74.4399H271.476V71.4494C271.157 71.9415 270.728 72.3264 270.189 72.604C269.662 72.8816 269.055 73.0204 268.369 73.0204C267.535 73.0204 266.8 72.8311 266.162 72.4526C265.537 72.0614 265.053 71.5251 264.71 70.8438C264.379 70.1624 264.214 69.3801 264.214 68.4968C264.214 67.6514 264.385 66.8944 264.728 66.2256C265.072 65.5569 265.556 65.0395 266.181 64.6736C266.818 64.2951 267.548 64.1058 268.369 64.1058C269.067 64.1058 269.68 64.2446 270.207 64.5222C270.734 64.7998 271.157 65.1846 271.476 65.6767V62.4781H262.743V60.434H275.815ZM268.994 71.0709C269.521 71.0709 269.968 70.951 270.336 70.7113C270.716 70.4715 270.998 70.1624 271.182 69.7839C271.378 69.4053 271.476 69.0079 271.476 68.5915V68.5726C271.476 67.8912 271.255 67.3045 270.814 66.8124C270.385 66.3203 269.778 66.0742 268.994 66.0742C268.283 66.0742 267.695 66.3013 267.229 66.7556C266.775 67.2098 266.549 67.8092 266.549 68.5536C266.549 69.3107 266.775 69.9227 267.229 70.3895C267.695 70.8438 268.283 71.0709 268.994 71.0709Z" fill="#FF5076"/>
<path d="M271.346 60.5097C270.794 59.6265 270.347 58.9893 270.004 58.5981C269.66 58.2069 269.317 57.9483 268.974 57.8221C268.619 57.6959 268.141 57.6328 267.54 57.6328H266.639V55.6455H267.485C268.465 55.6581 269.244 55.7654 269.82 55.9673C270.396 56.1692 270.966 56.6108 271.53 57.2921C272.093 57.9609 272.78 59.0334 273.589 60.5097H271.346Z" fill="#FF5076"/>
<path d="M294.829 62.4781H292.77V74.4399H290.417V68.4022H282.915V70.5977C282.915 71.1781 283.044 71.645 283.301 71.9983C283.559 72.3516 283.945 72.5283 284.46 72.5283C284.938 72.5283 285.312 72.3642 285.581 72.0362C285.851 71.7081 285.986 71.2854 285.986 70.7681V70.522H288.265C288.278 70.623 288.284 70.7428 288.284 70.8816C288.284 72.0299 287.947 72.9383 287.273 73.6071C286.599 74.2758 285.673 74.6102 284.496 74.6102C283.246 74.6102 282.278 74.2317 281.592 73.4746C280.905 72.7049 280.562 71.7081 280.562 70.4842V66.6609H282.051C283.032 66.6609 283.749 66.4212 284.202 65.9417C284.656 65.4496 284.883 64.7746 284.883 63.9165V62.4781H278.889V60.434H294.829V62.4781ZM290.417 62.4781H287.236V63.9165C287.236 64.8755 287.021 65.7083 286.592 66.4149H290.417V62.4781Z" fill="#FF5076"/>
<path d="M307.298 60.434V62.4781H305.276V74.4399H302.977V71.5819C302.671 72.0488 302.248 72.421 301.709 72.6986C301.17 72.9636 300.544 73.0961 299.834 73.0961C298.988 73.0961 298.222 72.9068 297.535 72.5283C296.861 72.1371 296.328 71.5945 295.936 70.9006C295.544 70.194 295.347 69.3927 295.347 68.4968C295.347 67.6136 295.537 66.8313 295.917 66.1499C296.31 65.4685 296.843 64.9386 297.517 64.5601C298.191 64.1815 298.951 63.9923 299.797 63.9923C300.495 63.9923 301.108 64.1247 301.635 64.3897C302.175 64.6547 302.622 65.0143 302.977 65.4685V62.4781H293.877V60.434H307.298ZM300.293 65.601C299.57 65.601 298.951 65.8155 298.436 66.2445L302.794 69.8596C303.002 69.4053 303.106 68.9448 303.106 68.4779C303.106 67.9732 302.996 67.5 302.775 67.0584C302.555 66.6168 302.23 66.2635 301.801 65.9985C301.384 65.7335 300.881 65.601 300.293 65.601ZM297.425 68.4968C297.425 69.0773 297.554 69.582 297.811 70.011C298.069 70.44 298.418 70.7681 298.859 70.9952C299.3 71.2223 299.778 71.3359 300.293 71.3359C301.029 71.3359 301.654 71.1151 302.168 70.6734L297.774 67.0584C297.541 67.5 297.425 67.9795 297.425 68.4968Z" fill="#FF5076"/>
<path d="M317.056 66.2445C316.259 66.2445 315.64 66.4212 315.199 66.7745C314.758 67.1152 314.537 67.6199 314.537 68.2886C314.537 68.8817 314.715 69.3612 315.07 69.7271C315.438 70.0804 315.934 70.257 316.559 70.257C317.099 70.257 317.564 70.0867 317.957 69.746C318.361 69.4053 318.563 68.9385 318.563 68.3454H320.623V79.0013H318.435V76.5975C318.153 77.0013 317.785 77.3041 317.332 77.506C316.89 77.7205 316.388 77.8278 315.824 77.8278C315.113 77.8278 314.494 77.6701 313.967 77.3546C313.44 77.0392 313.035 76.6038 312.754 76.0487C312.472 75.5061 312.331 74.8941 312.331 74.2128C312.331 73.5566 312.466 72.9699 312.735 72.4526C313.005 71.9352 313.379 71.5251 313.857 71.2223C313.342 70.9195 312.937 70.5031 312.643 69.9731C312.349 69.4432 312.202 68.8123 312.202 68.0805C312.202 66.8313 312.619 65.8723 313.452 65.2036C314.298 64.5348 315.432 64.2004 316.854 64.2004H317.865V62.4781H310.566V60.434H322.516V62.4781H320.255V66.2445H317.056ZM318.435 71.0898C317.957 71.6955 317.234 72.0488 316.265 72.1497C315.714 72.2002 315.272 72.4021 314.941 72.7554C314.623 73.0961 314.463 73.5377 314.463 74.0803C314.463 74.6607 314.647 75.1276 315.015 75.4809C315.383 75.8342 315.855 76.0108 316.431 76.0108C317.056 76.0108 317.546 75.8089 317.902 75.4051C318.257 75.014 318.435 74.5534 318.435 74.0235V71.0898Z" fill="#FF5076"/>
<path d="M323.608 74.4399V62.4781H321.568V60.434H328.021V62.4781H325.98V74.4399H323.608Z" fill="#FF5076"/>
<path d="M331.084 68.4968V70.6356C331.084 71.2034 331.206 71.6639 331.451 72.0172C331.709 72.3579 332.083 72.5283 332.573 72.5283C333.026 72.5283 333.382 72.3705 333.639 72.0551C333.909 71.727 334.044 71.298 334.044 70.7681V70.2949H336.324C336.336 70.4085 336.342 70.5409 336.342 70.6924C336.342 71.8911 336.011 72.8437 335.349 73.5503C334.687 74.2569 333.774 74.6102 332.61 74.6102C331.36 74.6102 330.397 74.2317 329.723 73.4746C329.061 72.7175 328.73 71.7333 328.73 70.522V66.5095H330.624C331.605 66.5095 332.316 66.2824 332.757 65.8282C333.21 65.3613 333.437 64.6799 333.437 63.7841V62.4781H327.057V60.434H337.611V62.4781H335.809V63.7841C335.809 66.9259 334.369 68.4968 331.488 68.4968H331.084Z" fill="#FF5076"/>
<path d="M345.396 76.73H342.804V59.147H345.396V76.73Z" fill="#FF5076"/>
<path d="M350.886 76.73H348.294V59.147H350.886V76.73Z" fill="#FF5076"/>
<defs>
<linearGradient id="paint0_linear_129_99" x1="30.6717" y1="48.3018" x2="30.6717" y2="56.5283" gradientUnits="userSpaceOnUse">
<stop stop-color="#FFCC00"/>
<stop offset="1" stop-color="#FAB63F"/>
</linearGradient>
<linearGradient id="paint1_linear_129_99" x1="27.6741" y1="38.8994" x2="27.6741" y2="42.8952" gradientUnits="userSpaceOnUse">
<stop stop-color="#FFCC00"/>
<stop offset="1" stop-color="#FAB63F"/>
</linearGradient>
<linearGradient id="paint2_linear_129_99" x1="32.9648" y1="12.2031" x2="32.9648" y2="33.8458" gradientUnits="userSpaceOnUse">
<stop stop-color="#FFCC00"/>
<stop offset="1" stop-color="#FAB63F"/>
</linearGradient>
<linearGradient id="paint3_linear_129_99" x1="32.9648" y1="12.2031" x2="32.9648" y2="33.8458" gradientUnits="userSpaceOnUse">
<stop stop-color="#FFCC00"/>
<stop offset="1" stop-color="#FAB63F"/>
</linearGradient>
<linearGradient id="paint4_linear_129_99" x1="48.0662" y1="2.82031" x2="48.0662" y2="20.2136" gradientUnits="userSpaceOnUse">
<stop stop-color="#FFCC00"/>
<stop offset="1" stop-color="#FAB63F"/>
</linearGradient>
<linearGradient id="paint5_linear_129_99" x1="79.2078" y1="0" x2="79.2078" y2="56.6457" gradientUnits="userSpaceOnUse">
<stop stop-color="#FFCC00"/>
<stop offset="1" stop-color="#FAB63F"/>
</linearGradient>
<linearGradient id="paint6_linear_129_99" x1="79.2078" y1="0" x2="79.2078" y2="56.6457" gradientUnits="userSpaceOnUse">
<stop stop-color="#FFCC00"/>
<stop offset="1" stop-color="#FAB63F"/>
</linearGradient>
<linearGradient id="paint7_linear_129_99" x1="79.2078" y1="0" x2="79.2078" y2="56.6457" gradientUnits="userSpaceOnUse">
<stop stop-color="#FFCC00"/>
<stop offset="1" stop-color="#FAB63F"/>
</linearGradient>
<linearGradient id="paint8_linear_129_99" x1="79.2078" y1="0" x2="79.2078" y2="56.6457" gradientUnits="userSpaceOnUse">
<stop stop-color="#FFCC00"/>
<stop offset="1" stop-color="#FAB63F"/>
</linearGradient>
<linearGradient id="paint9_linear_129_99" x1="79.2078" y1="0" x2="79.2078" y2="56.6457" gradientUnits="userSpaceOnUse">
<stop stop-color="#FFCC00"/>
<stop offset="1" stop-color="#FAB63F"/>
</linearGradient>
<linearGradient id="paint10_linear_129_99" x1="79.2078" y1="0" x2="79.2078" y2="56.6457" gradientUnits="userSpaceOnUse">
<stop stop-color="#FFCC00"/>
<stop offset="1" stop-color="#FAB63F"/>
</linearGradient>
</defs>
</svg>
