<svg width="238" height="226" viewBox="0 0 238 226" fill="none" xmlns="http://www.w3.org/2000/svg">
<path d="M17.3344 158.914L29.7264 142.92L0.210938 166.348C16.2079 169.952 31.0783 165.447 54.961 154.634C74.0672 145.984 98.9713 149.828 109.035 152.832C109.711 154.183 112.189 156.977 116.696 157.337C121.202 157.698 123.23 154.484 123.68 152.832C155.043 149.047 172.047 152.456 176.628 154.634C213.578 170.673 230.026 168.976 233.631 166.122L203.665 142.92L216.282 158.914C209.748 158.914 201.186 156.887 176.628 145.173C152.069 133.459 129.088 146.975 123.004 151.48C118.138 155.084 113.016 152.982 111.063 151.48C102.276 144.647 78.7536 133.82 54.961 145.173C31.1684 156.526 19.963 159.064 17.3344 158.914Z" fill="#FF5076"/>
<path d="M194.416 137.157L181.414 125.994L209.436 139.613C204.429 142.292 189.619 146.356 170.43 141.176C151.241 135.996 128.66 144.078 119.768 148.767C128.511 133.139 158.325 131.04 170.43 134.255C181.414 137.172 189.485 137.678 194.416 137.157Z" fill="#7034B3"/>
<path d="M38.7146 137.157L51.7164 125.994L23.6953 139.613C28.7017 142.292 43.5118 146.356 62.7006 141.176C81.8895 135.996 104.471 144.078 113.363 148.767C104.62 133.139 74.8057 131.04 62.7006 134.255C51.7164 137.172 43.6463 137.678 38.7146 137.157Z" fill="#7034B3"/>
<path d="M173.762 123.593L161.18 110.338L178.479 119.1L184.77 122.695C181.741 126.038 173.762 130.782 152.194 130.782C140.287 130.782 124.336 139.994 120.516 144.487C127.481 132.355 136.923 126.442 146.802 125.84C155.766 125.294 170.22 125.252 173.762 123.593Z" fill="#57B7FF"/>
<path d="M59.7489 121.755L73.8227 105.375L55.3238 116.614L48.5602 121.187C51.3595 125.036 59.1013 130.327 81.1808 129.34C93.3705 128.796 108.87 139.049 112.375 144.231C106.338 130.085 97.2046 123.466 87.1459 123.201C78.0185 122.959 63.2255 123.571 59.7489 121.755Z" fill="#57B7FF"/>
<path d="M119.621 105.762C119.973 105.276 120.647 104.746 121.569 104.215C127.374 100.536 144.147 93.8207 155.623 102.456C166.932 110.965 157.906 118.766 152.31 121.19L117.633 135.957C121.388 133.092 128.897 125.599 135.524 122.513C146.788 117.267 153.967 113.849 151.648 107.746C147.384 96.5307 128.16 100.414 121.569 104.215C120.559 104.855 119.881 105.403 119.621 105.762Z" fill="#E53C38"/>
<path d="M87.0601 116.966C74.0675 109.833 78.4091 102.492 83.0708 99.2969C80.0633 100.412 75.3541 102.972 74.9529 108.941C74.4284 116.743 84.7292 120.607 90.4436 122.539C90.4436 122.539 99.4554 125.893 105.105 128.335C110.918 130.848 119.767 135.246 119.767 135.246C115.707 129.227 101.722 123.431 101.722 123.431C101.722 123.431 92.0026 119.68 87.0601 116.966Z" fill="#E53C38"/>
<path d="M41.6582 108.064L76.0316 97.9545L72.8864 92.3379L41.6582 108.064Z" fill="url(#paint0_linear_278_672)"/>
<path d="M76.9511 103.56C72.5453 96.892 69.538 88.3759 69.1425 80.3817C68.747 72.3874 70.505 64.4341 74.231 57.3601C77.957 50.2861 83.513 44.3536 90.3133 40.1881C97.1135 36.0226 104.906 33.7783 112.869 33.692C120.832 33.6057 128.671 35.6805 135.559 39.6977C142.447 43.7149 148.129 49.5255 152.006 56.5171C155.883 63.5087 157.811 71.4221 157.588 79.423C157.364 87.424 156.072 93.548 151.81 100.31C151.81 100.31 149.619 99.5393 148.247 99.1201C146.849 98.6932 144.574 98.4043 144.574 98.4043C148.154 92.7249 150.319 85.9433 150.507 79.2229C150.695 72.5025 149.075 65.8556 145.819 59.983C142.563 54.1104 137.79 49.2297 132.004 45.8555C126.219 42.4813 119.634 40.7386 112.946 40.8111C106.257 40.8835 99.7116 42.7686 93.9997 46.2674C88.2878 49.7663 83.621 54.7493 80.4913 60.6911C77.3617 66.6329 75.8851 73.3133 76.2172 80.0281C76.5494 86.7429 79.3701 93.6952 83.0707 99.2957C83.0707 99.2957 80.5809 100.437 79.327 101.257C78.1516 102.025 76.9511 103.56 76.9511 103.56Z" fill="#FFCC00"/>
<path d="M36.043 78.8565L70.1917 82.0018V74.3633L36.043 78.8565Z" fill="url(#paint1_linear_278_672)"/>
<path d="M41.4355 48.7525L71.765 64.7035L74.6857 58.413L41.4355 48.7525Z" fill="url(#paint2_linear_278_672)"/>
<path d="M59.6332 23.33L80.0776 49.8403L85.0202 44.7085L59.6332 23.33Z" fill="url(#paint3_linear_278_672)"/>
<path d="M83.6719 5.39258L94.231 38.6427L100.522 36.1714L83.6719 5.39258Z" fill="url(#paint4_linear_278_672)"/>
<path d="M114.489 0L110.703 33.9557H118.053L114.489 0Z" fill="url(#paint5_linear_278_672)"/>
<path d="M143.442 7.14856L127.852 35.9662L134.311 38.8703L143.442 7.14856Z" fill="url(#paint6_linear_278_672)"/>
<path d="M169.5 23.0094L142.551 44.6785L147.451 49.8165L169.5 23.0094Z" fill="url(#paint7_linear_278_672)"/>
<path d="M186.426 48.0294L153.019 58.5288L155.692 65.2306L186.426 48.0294Z" fill="url(#paint8_linear_278_672)"/>
<path d="M191.994 78.1874L157.473 74.6131V81.985L191.994 78.1874Z" fill="url(#paint9_linear_278_672)"/>
<path d="M185.313 107.675L155.692 91.3675L152.128 98.0693L185.313 107.675Z" fill="url(#paint10_linear_278_672)"/>
<circle cx="114.395" cy="81.3928" r="8.96313" fill="#E53C38"/>
<path d="M85.9696 65.2275C88.8056 75.2089 94.8344 79.5296 97.3058 80.1383C98.846 79.0878 101.226 78.0439 103.557 78.7707C103.634 77.0634 105.17 74.1652 106.873 72.8234C106.32 71.9587 104.38 70.1606 104.816 66.6656C98.2741 62.1911 89.5259 63.8425 85.9696 65.2275Z" fill="#57B7FF"/>
<path d="M114.234 48.5273C106.897 55.8646 106.058 63.2343 106.73 65.6893C108.398 66.5231 110.468 68.0934 110.969 70.4835C112.497 69.7192 115.777 69.6498 117.778 70.4835C118.264 69.5803 118.889 67.0095 122.155 65.6893C122.878 57.7962 117.175 50.9592 114.234 48.5273Z" fill="#FFBA00"/>
<path d="M143.007 64.7621C132.747 61.5047 125.589 64.2589 123.663 66.0537C123.703 67.9914 123.261 70.6534 121.312 72.2591C122.749 73.3036 124.393 76.296 124.593 78.5413C125.655 78.5577 128.313 77.9042 131.096 80.2851C138.678 77.1736 142.196 68.6399 143.007 64.7621Z" fill="#57B7FF"/>
<path d="M97.4423 53.1133C96.8309 55.4479 96.5854 59.9225 96.5391 61.868C98.4614 62.0764 102.667 62.8546 104.113 64.2998C103.946 61.9097 105.247 58.2086 105.919 56.6568C104.576 55.7304 101 53.7247 97.4423 53.1133Z" fill="#FF5076"/>
<path d="M130.615 52.9394C128.265 53.4885 124.193 55.3603 122.451 56.2275C123.164 58.0248 124.439 62.1076 123.836 64.0604C125.872 62.7971 129.753 62.2205 131.438 62.0901C131.631 60.4696 131.735 56.3709 130.615 52.9394Z" fill="#FF5076"/>
<path d="M147.019 81.0693C145.311 79.3648 141.57 76.8981 139.913 75.8778C138.764 77.4332 135.972 80.6741 133.996 81.1943C136.144 82.2546 138.685 85.2437 139.687 86.6058C141.164 85.9123 144.699 83.834 147.019 81.0693Z" fill="#FF5076"/>
<path d="M81.4243 81.7264C83.1446 83.4188 86.9032 85.8592 88.5675 86.8679C89.7052 85.3044 92.4738 82.044 94.4467 81.51C92.2907 80.4648 89.7288 77.4935 88.7173 76.1385C87.2451 76.8424 83.7255 78.9454 81.4243 81.7264Z" fill="#FF5076"/>
<path d="M108.294 101.398L120.832 108.15H106.365C104.243 108.15 100.037 107.841 100.963 103.52C101.889 99.1989 106.236 100.305 108.294 101.398Z" fill="#E53C38"/>
<path d="M120.639 106.22L116.588 103.712L121.796 101.205C125.075 99.6615 128.236 101.304 127.7 105.397C127.164 109.489 121.829 107.255 120.639 106.22Z" fill="#E53C38"/>
<path d="M119.482 99.469V95.418L122.954 99.469C123.533 100.176 125.346 101.514 127.97 101.205C130.284 100.933 129.899 98.2151 128.548 97.5399C127.198 96.8648 126.041 97.347 126.041 97.347L119.482 88.0877H116.202V85.7729C120.832 83.8438 118.517 79.0213 116.588 77.8639L115.431 77.4781L114.273 77.2852L113.116 77.4781L111.959 77.8639C107.715 80.7574 110.223 85.1942 111.959 85.9658V88.0877H108.679L101.735 97.347C101.735 97.347 100.77 96.9139 99.42 97.8056C98.0696 98.6973 98.0031 101.019 100.577 101.591C102.313 101.977 104.757 100.819 105.4 100.048L109.065 95.418V100.048L114.659 102.362L119.482 99.469Z" fill="white"/>
<path d="M22.6183 181.592V185.041H20.0642V201.077H15.9829V197.259L14.5083 196.522L9.47913 201.367H4.63424V200.998L11.4013 194.968L8.39956 193.441L4.71323 196.337H0V195.863L5.26618 191.756C4.17784 191.054 3.3528 190.281 2.79108 189.439C2.22935 188.596 1.94849 187.639 1.94849 186.569C1.94849 185.568 2.17669 184.673 2.63309 183.883C3.10705 183.093 3.7741 182.478 4.63424 182.04C5.51194 181.583 6.53884 181.355 7.71496 181.355C8.90863 181.355 9.94431 181.574 10.822 182.013C11.7173 182.435 12.4019 183.031 12.8758 183.804C13.3498 184.559 13.5868 185.419 13.5868 186.384C13.5868 187.35 13.4024 188.201 13.0338 188.938C12.6652 189.658 12.042 190.413 11.1643 191.203L15.9829 193.625V181.592H22.6183ZM5.7928 186.753C5.7928 187.876 6.45107 188.789 7.76762 189.491L8.03093 189.623C8.59266 189.202 9.0315 188.772 9.34748 188.333C9.681 187.894 9.84776 187.385 9.84776 186.806C9.84776 186.261 9.66345 185.796 9.29481 185.41C8.94374 185.006 8.461 184.796 7.84661 184.778C7.24978 184.778 6.75827 184.971 6.37208 185.357C5.9859 185.743 5.7928 186.209 5.7928 186.753Z" fill="#ffffff"/>
<path d="M31.0265 181.592V185.041H28.446V201.077H24.3121V185.041H21.7316V181.592H24.4437V180.591C24.4437 178.467 23.7065 177.405 22.2319 177.405C20.6872 177.405 19.9148 178.467 19.9148 180.591V182.514H15.9125V180.802C15.9125 178.678 16.4128 177.002 17.4134 175.773C18.4139 174.544 20.0201 173.93 22.2319 173.93C26.3747 173.93 28.446 176.22 28.446 180.802V181.592H31.0265Z" fill="#ffffff"/>
<path d="M54.4412 185.041H51.8608V201.077H47.7268V195.205L47.6479 195.31L42.4343 201.761H37.9581L42.566 196.574C41.0739 196.311 39.9329 195.6 39.143 194.441C38.353 193.265 37.9581 191.808 37.9581 190.071V185.041H35.7199V181.592H54.4412V185.041ZM47.7268 185.041H42.092V190.071C42.092 191.089 42.3202 191.896 42.7766 192.493C43.2506 193.09 43.9615 193.388 44.9094 193.388C45.8047 193.388 46.4981 193.099 46.9896 192.519C47.4811 191.94 47.7268 191.203 47.7268 190.308V185.041Z" fill="#ffffff"/>
<path d="M56.12 201.077V185.041H53.5396V181.592H62.8344V185.041H60.254V201.077H56.12Z" fill="#ffffff"/>
<path d="M86.4358 185.041H83.829V201.077H79.695V185.041H76.1667V191.466C76.1667 193.204 75.6664 194.608 74.6658 195.679C73.6653 196.732 72.2258 197.259 70.3476 197.259C68.4693 197.259 67.0299 196.715 66.0293 195.626C65.0287 194.538 64.5284 193.151 64.5284 191.466V185.041H61.948V181.592H86.4358V185.041ZM72.1117 185.041H68.5834V191.835C68.5834 192.414 68.7414 192.888 69.0574 193.257C69.3909 193.608 69.8297 193.783 70.3739 193.783C70.9356 193.783 71.3657 193.608 71.6641 193.257C71.9625 192.906 72.1117 192.432 72.1117 191.835V185.041Z" fill="#ffffff"/>
<path d="M108.119 185.041H105.538V201.077H101.378V191.466H98.0604C98.5168 192.291 98.745 193.195 98.745 194.178C98.745 195.249 98.4905 196.171 97.9815 196.943C97.4899 197.715 96.8229 198.295 95.9803 198.681C95.1553 199.067 94.2337 199.26 93.2156 199.26C92.1623 199.26 91.1793 199.041 90.2665 198.602C89.3712 198.145 88.6515 197.496 88.1074 196.653C87.5632 195.793 87.2911 194.793 87.2911 193.652C87.2911 192.44 87.572 191.413 88.1337 190.571C88.6954 189.711 89.4502 189.07 90.3981 188.649C91.3461 188.227 92.3993 188.017 93.5579 188.017H101.378V185.041H85.5533V181.592H108.119V185.041ZM93.2682 195.758C93.9177 195.758 94.4443 195.565 94.8481 195.179C95.2518 194.775 95.4537 194.257 95.4537 193.625C95.4537 192.993 95.2518 192.475 94.8481 192.072C94.4443 191.668 93.9177 191.466 93.2682 191.466C92.6187 191.466 92.0833 191.668 91.662 192.072C91.2407 192.475 91.0301 192.993 91.0301 193.625C91.0301 194.257 91.232 194.775 91.6357 195.179C92.057 195.565 92.6012 195.758 93.2682 195.758Z" fill="#ffffff"/>
<path d="M109.81 201.077V185.041H107.23V181.592H116.525V185.041H113.944V201.077H109.81Z" fill="#ffffff"/>
<path d="M137.44 181.592V185.041H134.86V201.077H130.726V196.074C130.287 196.881 129.567 197.557 128.567 198.101C127.584 198.646 126.399 198.918 125.012 198.918C123.52 198.918 122.204 198.619 121.063 198.022C119.939 197.408 119.07 196.539 118.456 195.416C117.841 194.275 117.534 192.941 117.534 191.413C117.534 190.694 117.578 190.062 117.666 189.518H119.957C121.466 189.518 122.651 189.298 123.511 188.859C124.389 188.42 124.828 187.674 124.828 186.621C124.828 186.112 124.687 185.7 124.407 185.384C124.126 185.05 123.74 184.883 123.248 184.883C122.739 184.883 122.335 185.05 122.037 185.384C121.738 185.7 121.589 186.138 121.589 186.7C121.589 186.928 121.624 187.236 121.694 187.622H117.956C117.885 187.165 117.85 186.823 117.85 186.595C117.85 185.471 118.096 184.515 118.587 183.725C119.079 182.935 119.737 182.347 120.562 181.961C121.387 181.557 122.3 181.355 123.301 181.355C124.371 181.355 125.311 181.574 126.118 182.013C126.943 182.452 127.584 183.084 128.04 183.909C128.497 184.717 128.725 185.656 128.725 186.727C128.725 188.482 128.11 189.877 126.882 190.913C125.67 191.949 123.915 192.467 121.616 192.467H121.563C121.668 193.327 122.054 194.047 122.721 194.626C123.388 195.188 124.363 195.468 125.644 195.468C126.592 195.468 127.452 195.267 128.225 194.863C128.997 194.441 129.603 193.827 130.041 193.02C130.498 192.195 130.726 191.203 130.726 190.044V181.592H137.44Z" fill="#ffffff"/>
<path d="M165.663 185.041H163.083V201.077H158.949V191.756H155.921V192.546C155.921 193.687 155.675 194.705 155.184 195.6C154.71 196.495 154.025 197.197 153.13 197.707C152.235 198.198 151.181 198.444 149.97 198.444C148.039 198.444 146.547 197.908 145.494 196.838C144.458 195.749 143.94 194.319 143.94 192.546V188.227H148.101V192.44C148.101 193.195 148.259 193.783 148.575 194.204C148.908 194.626 149.382 194.836 149.997 194.836C150.593 194.836 151.05 194.626 151.366 194.204C151.699 193.783 151.866 193.195 151.866 192.44V188.227H158.949V185.041H142.124V181.592H165.663V185.041Z" fill="#ffffff"/>
<path d="M174.072 181.592V185.041H171.492V201.077H167.358V185.041H164.777V181.592H167.49V180.591C167.49 178.467 166.752 177.405 165.278 177.405C163.733 177.405 162.961 178.467 162.961 180.591V182.514H158.958V180.802C158.958 178.678 159.459 177.002 160.459 175.773C161.46 174.544 163.066 173.93 165.278 173.93C169.42 173.93 171.492 176.22 171.492 180.802V181.592H174.072Z" fill="#ffffff"/>
<path d="M197.224 181.592V185.041H194.643V201.077H190.615V197.549C190.158 198.163 189.579 198.637 188.877 198.97C188.192 199.286 187.402 199.444 186.507 199.444C185.296 199.444 184.243 199.172 183.347 198.628C182.47 198.084 181.794 197.329 181.32 196.364C180.846 195.398 180.609 194.31 180.609 193.099C180.609 191.922 180.846 190.878 181.32 189.965C181.794 189.035 182.478 188.306 183.374 187.78C184.269 187.253 185.313 186.99 186.507 186.99C187.385 186.99 188.175 187.148 188.877 187.464C189.579 187.78 190.158 188.236 190.615 188.833V185.041H178.766V181.592H197.224ZM187.639 196.153C188.57 196.153 189.298 195.863 189.825 195.284C190.351 194.705 190.615 194.02 190.615 193.23V193.204C190.615 192.396 190.351 191.712 189.825 191.15C189.298 190.588 188.57 190.308 187.639 190.308C186.762 190.308 186.042 190.58 185.48 191.124C184.936 191.65 184.664 192.344 184.664 193.204C184.664 194.082 184.936 194.793 185.48 195.337C186.042 195.881 186.762 196.153 187.639 196.153Z" fill="#ffffff"/>
<path d="M198.909 201.077V185.041H196.328V181.592H205.623V185.041H203.043V201.077H198.909Z" fill="#ffffff"/>
<path d="M229.224 185.041H226.618V201.077H222.484V185.041H218.955V191.466C218.955 193.204 218.455 194.608 217.454 195.679C216.454 196.732 215.014 197.259 213.136 197.259C211.258 197.259 209.819 196.715 208.818 195.626C207.817 194.538 207.317 193.151 207.317 191.466V185.041H204.737V181.592H229.224V185.041ZM214.9 185.041H211.372V191.835C211.372 192.414 211.53 192.888 211.846 193.257C212.18 193.608 212.618 193.783 213.163 193.783C213.724 193.783 214.154 193.608 214.453 193.257C214.751 192.906 214.9 192.432 214.9 191.835V185.041Z" fill="#ffffff"/>
<path d="M237.637 181.592V185.041H235.056V201.077H230.922V185.041H228.342V181.592H231.054V180.591C231.054 178.467 230.317 177.405 228.842 177.405C227.297 177.405 226.525 178.467 226.525 180.591V182.514H222.523V180.802C222.523 178.678 223.023 177.002 224.024 175.773C225.024 174.544 226.63 173.93 228.842 173.93C232.985 173.93 235.056 176.22 235.056 180.802V181.592H237.637Z" fill="#ffffff"/>
<path d="M54.3315 223.645H52.5254V211.745H54.3315V223.645Z" fill="#FFCC00"/>
<path d="M58.1564 223.645H56.3503V211.745H58.1564V223.645Z" fill="#FFCC00"/>
<path d="M70.8492 213.999H69.4273V222.095H67.7877V218.944L67.6468 219.11L64.8286 222.364H63.0353L65.4435 219.776C64.6408 219.7 64.0259 219.379 63.5989 218.816C63.1805 218.244 62.9712 217.509 62.9712 216.612V213.999H61.7543V212.616H70.8492V213.999ZM67.7877 213.999H64.6365V216.612C64.6365 217.193 64.7646 217.65 65.0208 217.983C65.2855 218.308 65.6826 218.47 66.2121 218.47C66.7074 218.47 67.0917 218.312 67.365 217.996C67.6468 217.671 67.7877 217.27 67.7877 216.792V213.999Z" fill="#FFCC00"/>
<path d="M67.7232 212.667C67.3389 212.069 67.0272 211.638 66.7881 211.373C66.549 211.109 66.3099 210.934 66.0708 210.848C65.8231 210.763 65.4901 210.72 65.0716 210.72H64.444V209.375H65.0332C65.7164 209.384 66.2587 209.456 66.66 209.593C67.0614 209.729 67.4585 210.028 67.8513 210.489C68.2441 210.942 68.7224 211.668 69.286 212.667H67.7232Z" fill="#FFCC00"/>
<path d="M81.1093 213.999H79.6874V222.095H78.0222V217.548H76.1135V218.303C76.1135 219.191 75.8872 219.883 75.4346 220.378C74.9906 220.874 74.3501 221.121 73.5132 221.121C72.719 221.121 72.0785 220.895 71.5917 220.443C71.1135 219.99 70.8744 219.392 70.8744 218.649C70.8744 217.864 71.1263 217.261 71.6302 216.843C72.1425 216.416 72.8001 216.203 73.6028 216.203H74.5764V213.999H70.0546V212.616H81.1093V213.999ZM78.0222 213.999H76.1135V216.203H78.0222V213.999ZM74.5764 217.548H73.6541C73.2783 217.548 72.9752 217.646 72.7446 217.842C72.5226 218.03 72.4115 218.295 72.4115 218.636C72.4115 218.969 72.5098 219.234 72.7062 219.431C72.9111 219.627 73.1716 219.725 73.4876 219.725C73.8291 219.725 74.0939 219.606 74.2818 219.367C74.4782 219.127 74.5764 218.803 74.5764 218.393V217.548Z" fill="#FFCC00"/>
<path d="M96.0908 212.616V213.999H94.6689V222.095H93.0293V219.776C92.662 220.289 92.1027 220.545 91.3512 220.545C91.2573 220.545 91.1164 220.536 90.9285 220.519C90.6381 221.015 90.2453 221.412 89.75 221.711C89.2632 222.01 88.6911 222.159 88.0335 222.159C86.966 222.159 86.1206 221.856 85.4972 221.25C84.8823 220.643 84.5749 219.798 84.5749 218.713V216.958H84.9592C85.5314 216.958 85.9669 216.822 86.2658 216.548C86.5647 216.275 86.7141 215.823 86.7141 215.191V213.999H83.3836V212.616H96.0908ZM88.0719 220.737C88.7807 220.737 89.3102 220.464 89.6603 219.917C89.4041 219.678 89.2077 219.388 89.0711 219.046C88.9344 218.696 88.8661 218.312 88.8661 217.893C88.8661 217.39 88.9729 216.941 89.1864 216.548C89.3999 216.147 89.6945 215.835 90.0702 215.613C90.4545 215.391 90.8815 215.28 91.3512 215.28C92.0856 215.28 92.645 215.536 93.0293 216.049V213.999H88.3794V215.408C88.3794 216.262 88.1829 216.916 87.7901 217.368C87.3973 217.821 86.8721 218.073 86.2145 218.124V218.905C86.2145 219.452 86.3768 219.896 86.7013 220.238C87.0343 220.571 87.4912 220.737 88.0719 220.737ZM91.7099 219.277C92.1283 219.277 92.4528 219.14 92.6834 218.867C92.914 218.594 93.0293 218.273 93.0293 217.906C93.0293 217.539 92.914 217.223 92.6834 216.958C92.4614 216.685 92.1369 216.548 91.7099 216.548C91.317 216.548 90.9883 216.672 90.7235 216.92C90.4673 217.159 90.3392 217.483 90.3392 217.893C90.3392 218.329 90.4673 218.671 90.7235 218.918C90.9883 219.157 91.317 219.277 91.7099 219.277Z" fill="#FFCC00"/>
<path d="M99.9233 212.616V213.999H98.5015V222.095H96.849V213.999H95.4272V212.616H96.9003C96.5245 212.035 96.2171 211.617 95.978 211.36C95.7474 211.096 95.5126 210.925 95.2734 210.848C95.0343 210.763 94.7056 210.72 94.2871 210.72H93.6594V209.375H94.2487C94.9319 209.384 95.4699 209.456 95.8627 209.593C96.2641 209.729 96.6569 210.024 97.0412 210.477C97.434 210.921 97.9122 211.634 98.4759 212.616H99.9233Z" fill="#FFCC00"/>
<path d="M108.718 213.999V215.472C109.239 215.669 109.653 216.015 109.961 216.51C110.277 216.997 110.435 217.599 110.435 218.316C110.435 218.94 110.311 219.495 110.063 219.981C109.815 220.468 109.448 220.848 108.961 221.121C108.483 221.395 107.903 221.531 107.219 221.531C107.151 221.531 107.006 221.523 106.784 221.506V220.058L107.13 220.084C107.634 220.084 108.031 219.926 108.321 219.61C108.611 219.294 108.756 218.871 108.756 218.342C108.756 217.872 108.637 217.488 108.398 217.189C108.167 216.89 107.838 216.741 107.411 216.741C106.959 216.741 106.617 216.911 106.387 217.253C106.165 217.586 106.054 218.026 106.054 218.572V218.841H104.67V218.572C104.67 218.034 104.559 217.595 104.337 217.253C104.115 216.911 103.786 216.741 103.351 216.741C102.907 216.741 102.565 216.89 102.326 217.189C102.087 217.479 101.967 217.864 101.967 218.342C101.967 218.871 102.113 219.294 102.403 219.61C102.693 219.926 103.09 220.084 103.594 220.084L103.94 220.058V221.506C103.718 221.523 103.573 221.531 103.505 221.531C102.83 221.531 102.249 221.395 101.762 221.121C101.276 220.84 100.908 220.46 100.661 219.981C100.413 219.495 100.289 218.94 100.289 218.316C100.289 217.667 100.413 217.116 100.661 216.664C100.908 216.211 101.246 215.869 101.673 215.639C102.108 215.408 102.591 215.293 103.12 215.293C103.709 215.293 104.183 215.442 104.542 215.741C104.909 216.04 105.174 216.425 105.336 216.894H105.375C105.52 216.501 105.729 216.168 106.002 215.895C106.284 215.622 106.647 215.438 107.091 215.344V213.999H99.2645V212.616H111.447V213.999H108.718Z" fill="#FFCC00"/>
<path d="M118.331 216.587C117.767 216.587 117.31 216.732 116.96 217.022C116.61 217.313 116.435 217.718 116.435 218.239C116.435 218.709 116.576 219.085 116.858 219.367C117.14 219.64 117.515 219.776 117.985 219.776C118.369 219.776 118.698 219.657 118.971 219.418C119.253 219.179 119.394 218.837 119.394 218.393H120.918V222.441H119.304V220.327C119.117 220.575 118.869 220.767 118.561 220.904C118.254 221.032 117.904 221.096 117.511 221.096C116.999 221.096 116.533 220.985 116.115 220.763C115.696 220.541 115.363 220.212 115.116 219.776C114.868 219.341 114.744 218.811 114.744 218.188C114.744 217.548 114.889 217.001 115.18 216.548C115.479 216.087 115.884 215.741 116.397 215.511C116.918 215.28 117.507 215.165 118.164 215.165H118.805V213.999H113.719V212.616H122.084L122.071 213.999H120.47V216.587H118.331Z" fill="#FFCC00"/>
<path d="M118.775 212.667C118.391 212.069 118.079 211.638 117.84 211.373C117.601 211.109 117.362 210.934 117.123 210.848C116.875 210.763 116.542 210.72 116.124 210.72H115.496V209.375H116.085C116.768 209.384 117.311 209.456 117.712 209.593C118.113 209.729 118.51 210.028 118.903 210.489C119.296 210.942 119.774 211.668 120.338 212.667H118.775Z" fill="#FFCC00"/>
<path d="M130.402 212.616V213.999H128.993V222.095H127.379V220.071C127.157 220.404 126.858 220.665 126.482 220.852C126.115 221.04 125.692 221.134 125.214 221.134C124.633 221.134 124.121 221.006 123.677 220.75C123.241 220.485 122.904 220.122 122.665 219.661C122.434 219.2 122.319 218.671 122.319 218.073C122.319 217.501 122.438 216.988 122.678 216.536C122.917 216.083 123.254 215.733 123.69 215.485C124.134 215.229 124.642 215.101 125.214 215.101C125.701 215.101 126.128 215.195 126.495 215.383C126.862 215.571 127.157 215.831 127.379 216.164V213.999H121.294V212.616H130.402ZM125.649 219.815C126.017 219.815 126.328 219.734 126.584 219.571C126.849 219.409 127.046 219.2 127.174 218.944C127.31 218.688 127.379 218.419 127.379 218.137V218.124C127.379 217.663 127.225 217.266 126.918 216.933C126.619 216.6 126.196 216.433 125.649 216.433C125.154 216.433 124.744 216.587 124.42 216.894C124.104 217.202 123.946 217.607 123.946 218.111C123.946 218.624 124.104 219.038 124.42 219.354C124.744 219.661 125.154 219.815 125.649 219.815Z" fill="#FFCC00"/>
<path d="M127.288 212.667C126.904 212.069 126.592 211.638 126.353 211.373C126.114 211.109 125.875 210.934 125.636 210.848C125.388 210.763 125.055 210.72 124.636 210.72H124.009V209.375H124.598C125.281 209.384 125.823 209.456 126.225 209.593C126.626 209.729 127.023 210.028 127.416 210.489C127.809 210.942 128.287 211.668 128.851 212.667H127.288Z" fill="#FFCC00"/>
<path d="M143.65 213.999H142.215V222.095H140.575V218.009H135.349V219.495C135.349 219.887 135.439 220.203 135.618 220.443C135.797 220.682 136.066 220.801 136.425 220.801C136.758 220.801 137.018 220.69 137.206 220.468C137.394 220.246 137.488 219.96 137.488 219.61V219.443H139.076C139.085 219.512 139.089 219.593 139.089 219.687C139.089 220.464 138.854 221.079 138.385 221.531C137.915 221.984 137.27 222.21 136.451 222.21C135.579 222.21 134.905 221.954 134.427 221.442C133.948 220.921 133.709 220.246 133.709 219.418V216.83H134.747C135.43 216.83 135.93 216.668 136.246 216.343C136.562 216.01 136.72 215.554 136.72 214.973V213.999H132.544V212.616H143.65V213.999ZM140.575 213.999H138.359V214.973C138.359 215.622 138.21 216.185 137.911 216.664H140.575V213.999Z" fill="#FFCC00"/>
<path d="M152.337 212.616V213.999H150.928V222.095H149.327V220.161C149.113 220.477 148.819 220.729 148.443 220.916C148.067 221.096 147.632 221.185 147.136 221.185C146.547 221.185 146.013 221.057 145.535 220.801C145.065 220.536 144.694 220.169 144.421 219.7C144.147 219.221 144.011 218.679 144.011 218.073C144.011 217.475 144.143 216.945 144.408 216.484C144.681 216.023 145.053 215.665 145.522 215.408C145.992 215.152 146.521 215.024 147.111 215.024C147.597 215.024 148.024 215.114 148.392 215.293C148.767 215.472 149.079 215.716 149.327 216.023V213.999H142.986V212.616H152.337ZM147.456 216.113C146.953 216.113 146.521 216.258 146.163 216.548L149.199 218.995C149.344 218.688 149.416 218.376 149.416 218.06C149.416 217.718 149.34 217.398 149.186 217.099C149.032 216.8 148.806 216.561 148.507 216.382C148.217 216.203 147.866 216.113 147.456 216.113ZM145.458 218.073C145.458 218.466 145.548 218.807 145.727 219.098C145.907 219.388 146.15 219.61 146.457 219.764C146.765 219.917 147.098 219.994 147.456 219.994C147.969 219.994 148.404 219.845 148.763 219.546L145.702 217.099C145.539 217.398 145.458 217.723 145.458 218.073Z" fill="#FFCC00"/>
<path d="M159.135 216.548C158.58 216.548 158.149 216.668 157.842 216.907C157.534 217.138 157.381 217.479 157.381 217.932C157.381 218.333 157.504 218.658 157.752 218.905C158.008 219.144 158.354 219.264 158.79 219.264C159.165 219.264 159.49 219.149 159.763 218.918C160.045 218.688 160.186 218.372 160.186 217.97H161.621V225.182H160.096V223.555C159.9 223.829 159.644 224.033 159.328 224.17C159.02 224.315 158.67 224.388 158.277 224.388C157.782 224.388 157.351 224.281 156.983 224.068C156.616 223.854 156.334 223.56 156.138 223.184C155.942 222.817 155.843 222.402 155.843 221.941C155.843 221.497 155.937 221.1 156.125 220.75C156.313 220.4 156.574 220.122 156.907 219.917C156.548 219.712 156.266 219.431 156.061 219.072C155.856 218.713 155.754 218.286 155.754 217.791C155.754 216.945 156.044 216.296 156.625 215.844C157.214 215.391 158.004 215.165 158.995 215.165H159.699V213.999H154.614V212.616H162.94V213.999H161.364V216.548H159.135ZM160.096 219.828C159.763 220.238 159.259 220.477 158.585 220.545C158.2 220.579 157.893 220.716 157.662 220.955C157.44 221.185 157.329 221.484 157.329 221.852C157.329 222.244 157.457 222.56 157.714 222.799C157.97 223.039 158.299 223.158 158.7 223.158C159.135 223.158 159.477 223.022 159.725 222.748C159.972 222.484 160.096 222.172 160.096 221.813V219.828Z" fill="#FFCC00"/>
<path d="M163.701 222.095V213.999H162.279V212.616H166.775V213.999H165.353V222.095H163.701Z" fill="#FFCC00"/>
<path d="M168.909 218.073V219.52C168.909 219.905 168.995 220.216 169.165 220.455C169.345 220.686 169.605 220.801 169.947 220.801C170.263 220.801 170.51 220.694 170.69 220.481C170.878 220.259 170.971 219.969 170.971 219.61V219.29H172.56C172.568 219.367 172.573 219.456 172.573 219.559C172.573 220.37 172.342 221.015 171.881 221.493C171.42 221.971 170.784 222.21 169.972 222.21C169.101 222.21 168.431 221.954 167.961 221.442C167.5 220.929 167.27 220.263 167.27 219.443V216.728H168.589C169.272 216.728 169.767 216.574 170.075 216.267C170.391 215.951 170.549 215.489 170.549 214.883V213.999H166.104V212.616H173.457V213.999H172.201V214.883C172.201 217.01 171.198 218.073 169.191 218.073H168.909Z" fill="#FFCC00"/>
<path d="M178.881 223.645H177.075V211.745H178.881V223.645Z" fill="#FFCC00"/>
<path d="M182.706 223.645H180.9V211.745H182.706V223.645Z" fill="#FFCC00"/>
<defs>
<linearGradient id="paint0_linear_278_672" x1="58.8449" y1="92.3379" x2="58.8449" y2="108.064" gradientUnits="userSpaceOnUse">
<stop stop-color="#FFCC00"/>
<stop offset="1" stop-color="#FAB63F"/>
</linearGradient>
<linearGradient id="paint1_linear_278_672" x1="53.1174" y1="74.3633" x2="53.1174" y2="82.0018" gradientUnits="userSpaceOnUse">
<stop stop-color="#FFCC00"/>
<stop offset="1" stop-color="#FAB63F"/>
</linearGradient>
<linearGradient id="paint2_linear_278_672" x1="63.2279" y1="23.3301" x2="63.2279" y2="64.7035" gradientUnits="userSpaceOnUse">
<stop stop-color="#FFCC00"/>
<stop offset="1" stop-color="#FAB63F"/>
</linearGradient>
<linearGradient id="paint3_linear_278_672" x1="63.2279" y1="23.3301" x2="63.2279" y2="64.7035" gradientUnits="userSpaceOnUse">
<stop stop-color="#FFCC00"/>
<stop offset="1" stop-color="#FAB63F"/>
</linearGradient>
<linearGradient id="paint4_linear_278_672" x1="92.0967" y1="5.39258" x2="92.0967" y2="38.6427" gradientUnits="userSpaceOnUse">
<stop stop-color="#FFCC00"/>
<stop offset="1" stop-color="#FAB63F"/>
</linearGradient>
<linearGradient id="paint5_linear_278_672" x1="151.349" y1="0" x2="151.349" y2="107.675" gradientUnits="userSpaceOnUse">
<stop stop-color="#FFCC00"/>
<stop offset="1" stop-color="#FAB63F"/>
</linearGradient>
<linearGradient id="paint6_linear_278_672" x1="151.349" y1="0" x2="151.349" y2="107.675" gradientUnits="userSpaceOnUse">
<stop stop-color="#FFCC00"/>
<stop offset="1" stop-color="#FAB63F"/>
</linearGradient>
<linearGradient id="paint7_linear_278_672" x1="151.349" y1="0" x2="151.349" y2="107.675" gradientUnits="userSpaceOnUse">
<stop stop-color="#FFCC00"/>
<stop offset="1" stop-color="#FAB63F"/>
</linearGradient>
<linearGradient id="paint8_linear_278_672" x1="151.349" y1="0" x2="151.349" y2="107.675" gradientUnits="userSpaceOnUse">
<stop stop-color="#FFCC00"/>
<stop offset="1" stop-color="#FAB63F"/>
</linearGradient>
<linearGradient id="paint9_linear_278_672" x1="151.349" y1="0" x2="151.349" y2="107.675" gradientUnits="userSpaceOnUse">
<stop stop-color="#FFCC00"/>
<stop offset="1" stop-color="#FAB63F"/>
</linearGradient>
<linearGradient id="paint10_linear_278_672" x1="151.349" y1="0" x2="151.349" y2="107.675" gradientUnits="userSpaceOnUse">
<stop stop-color="#FFCC00"/>
<stop offset="1" stop-color="#FAB63F"/>
</linearGradient>
</defs>
</svg>
