<?xml version="1.0" encoding="UTF-8"?>
<svg width="229px" height="818px" viewBox="0 0 229 818" version="1.1" xmlns="http://www.w3.org/2000/svg" xmlns:xlink="http://www.w3.org/1999/xlink">
    <!-- Generator: Sketch 53 (72520) - https://sketchapp.com -->
    <title>bg-1</title>
    <desc>Created with Sketch.</desc>
    <defs>
        <linearGradient x1="47.8944818%" y1="-9.21335019%" x2="55.7431342%" y2="50%" id="linearGradient-1">
            <stop stop-color="#6AA3FC" offset="0%"></stop>
            <stop stop-color="#4F70AC" offset="100%"></stop>
        </linearGradient>
        <linearGradient x1="48.1408215%" y1="-9.21335019%" x2="55.0712036%" y2="50%" id="linearGradient-2">
            <stop stop-color="#6AA3FC" offset="0%"></stop>
            <stop stop-color="#4F70AC" offset="100%"></stop>
        </linearGradient>
        <linearGradient x1="48.133461%" y1="-9.21335019%" x2="55.0912804%" y2="50%" id="linearGradient-3">
            <stop stop-color="#6AA3FC" offset="0%"></stop>
            <stop stop-color="#4F70AC" offset="100%"></stop>
        </linearGradient>
        <linearGradient x1="48.133452%" y1="-9.21335019%" x2="55.091305%" y2="50%" id="linearGradient-4">
            <stop stop-color="#6AA3FC" offset="0%"></stop>
            <stop stop-color="#4F70AC" offset="100%"></stop>
        </linearGradient>
        <linearGradient x1="48.1403631%" y1="-9.21335019%" x2="55.072454%" y2="50%" id="linearGradient-5">
            <stop stop-color="#6AA3FC" offset="0%"></stop>
            <stop stop-color="#4F70AC" offset="100%"></stop>
        </linearGradient>
        <linearGradient x1="48.139048%" y1="-9.21335019%" x2="55.076041%" y2="50%" id="linearGradient-6">
            <stop stop-color="#6AA3FC" offset="0%"></stop>
            <stop stop-color="#4F70AC" offset="100%"></stop>
        </linearGradient>
        <linearGradient x1="48.1380212%" y1="-9.21335019%" x2="55.078842%" y2="50%" id="linearGradient-7">
            <stop stop-color="#6AA3FC" offset="0%"></stop>
            <stop stop-color="#4F70AC" offset="100%"></stop>
        </linearGradient>
    </defs>
    <g id="bg-1" stroke="none" stroke-width="1" fill="none" fill-rule="evenodd">
        <g id="plant" opacity="0.5" transform="translate(136.417866, 580.811717) rotate(-78.000000) translate(-136.417866, -580.811717) translate(76.591011, 482.922956)">
            <path d="M29.0062937,195.735079 C29.0062937,170.243214 50.28711,91.3540781 79.0121247,48.1878127" id="stem" stroke="#A1B8E3" stroke-width="3.78" stroke-linecap="round"></path>
            <path d="M54.11471,63.2907674 C59.0422162,56.3662904 61.5084087,48.6349006 61.5132877,40.0965981 C61.5206061,27.2891443 58.2200155,16.9085423 54.1412123,16.9108746 C50.062409,16.9132068 46.749953,27.2975901 46.7426346,40.1050439 C46.7377556,48.6433464 49.1951141,56.3719209 54.11471,63.2907674 Z" id="leaf" fill="#A1B8E3" transform="translate(54.127964, 40.100821) rotate(-30.000000) translate(-54.127964, -40.100821) "></path>
            <path d="M96.2221636,86.9370193 C101.150264,80.0224237 103.614118,72.300193 103.613725,63.7703273 C103.613136,50.9755288 100.302865,40.603143 96.2200289,40.6029551 C92.1371927,40.6027673 88.8278779,50.9748485 88.8284674,63.7696471 C88.8288603,72.2995127 91.2934258,80.0219701 96.2221636,86.9370193 Z" id="leaf" fill="#A1B8E3" transform="translate(96.221096, 63.769987) rotate(88.000000) translate(-96.221096, -63.769987) "></path>
            <path d="M82.4731148,120.586253 C87.4016994,113.671325 89.86609,105.948934 89.8662866,97.4190786 C89.8665816,84.6242955 86.557024,74.2521507 82.4741828,74.2522446 C78.3913417,74.2523386 75.0813059,84.6246359 75.081011,97.4194189 C75.0808144,105.949274 77.544849,113.671552 82.4731148,120.586253 Z" id="leaf" fill="#A1B8E3" transform="translate(82.473649, 97.419249) rotate(91.000000) translate(-82.473649, -97.419249) "></path>
            <path d="M71.2703632,153.217247 C76.1989478,146.30232 78.6633385,138.579928 78.6635351,130.050073 C78.66383,117.25529 75.3542724,106.883145 71.2714312,106.883239 C67.1885901,106.883333 63.8785543,117.25563 63.8782594,130.050413 C63.8780628,138.580268 66.3420974,146.302546 71.2703632,153.217247 Z" id="leaf" fill="#A1B8E3" transform="translate(71.270897, 130.050243) rotate(91.000000) translate(-71.270897, -130.050243) "></path>
            <path d="M94.0774886,47.0616168 C98.9971707,40.1433507 101.454438,32.4153291 101.449292,23.877552 C101.441572,11.0708864 98.1285865,0.687038217 94.0495321,0.684578006 C89.9704778,0.682117795 86.6700091,11.0619772 86.6777291,23.8686428 C86.6828757,32.4064199 89.1494622,40.1374113 94.0774886,47.0616168 Z" id="leaf" fill="#A1B8E3" transform="translate(94.063508, 23.873097) rotate(33.000000) translate(-94.063508, -23.873097) "></path>
            <path d="M35.7960103,98.8825034 C40.7252569,91.9592704 43.1926696,84.229519 43.1982485,75.6932493 C43.2066168,62.8888447 39.9060897,52.5109858 35.8263147,52.5136526 C31.7465398,52.5163195 28.4324449,62.8985022 28.4240765,75.7029068 C28.4184977,84.2391765 30.8758089,91.9657087 35.7960103,98.8825034 Z" id="leaf" fill="#A1B8E3" transform="translate(35.811166, 75.698078) rotate(-41.000000) translate(-35.811166, -75.698078) "></path>
            <path d="M22.048451,134.567917 C26.97841,127.645615 29.4461996,119.916917 29.4518196,111.381824 C29.4602495,98.5791852 26.1593162,88.2027735 22.0789786,88.20546 C17.998641,88.2081465 14.68404,98.5889138 14.67561,111.391553 C14.66999,119.926646 17.1276037,127.6521 22.048451,134.567917 Z" id="leaf" fill="#A1B8E3" transform="translate(22.063718, 111.386688) rotate(-47.000000) translate(-22.063718, -111.386688) "></path>
        </g>
        <g id="plant" transform="translate(188.795409, 504.767595) rotate(-47.000000) translate(-188.795409, -504.767595) translate(114.799036, 383.694654)">
            <path d="M35.8762054,242.093387 C35.8762054,210.563976 62.197215,112.99057 97.7255227,59.6007157" id="stem" stroke="url(#linearGradient-1)" stroke-width="3.78" stroke-linecap="round"></path>
            <path d="M66.9313518,78.2806861 C73.0258989,69.7162013 76.0761897,60.1536929 76.0822242,49.5931608 C76.0912759,33.7523627 72.0089665,20.9131971 66.9641309,20.9160817 C61.9192954,20.9189663 57.8223103,33.7628088 57.8132586,49.6036069 C57.8072241,60.164139 60.8465885,69.7231654 66.9313518,78.2806861 Z" id="leaf" fill="url(#linearGradient-2)" opacity="0.800000012" transform="translate(66.947744, 49.598384) rotate(-30.000000) translate(-66.947744, -49.598384) "></path>
            <path d="M119.011623,107.527366 C125.106906,98.9751029 128.154304,89.4239229 128.153818,78.8738259 C128.153089,63.0486804 124.058807,50.2196768 119.008983,50.2194445 C113.959159,50.2192121 109.866059,63.047839 109.866789,78.8729845 C109.867275,89.4230815 112.915553,98.974542 119.011623,107.527366 Z" id="leaf" fill="url(#linearGradient-3)" opacity="0.800000012" transform="translate(119.010303, 78.873405) rotate(88.000000) translate(-119.010303, -78.873405) "></path>
            <path d="M102.006221,149.146155 C108.102102,140.593481 111.150164,131.042103 111.150407,120.492018 C111.150772,104.666892 107.057372,91.8381863 102.007542,91.8383026 C96.9577121,91.8384188 92.8637205,104.667313 92.8633557,120.492439 C92.8631125,131.042524 95.9107343,140.593762 102.006221,149.146155 Z" id="leaf" fill="url(#linearGradient-4)" opacity="0.800000012" transform="translate(102.006881, 120.492229) rotate(91.000000) translate(-102.006881, -120.492229) "></path>
            <path d="M88.1501861,189.505542 C94.2460671,180.952869 97.2941291,171.40149 97.2943723,160.851406 C97.2947371,145.026279 93.2013369,132.197574 88.1515071,132.19769 C83.1016772,132.197806 79.0076856,145.0267 79.0073208,160.851827 C79.0070777,171.401911 82.0546994,180.95315 88.1501861,189.505542 Z" id="leaf" fill="url(#linearGradient-4)" opacity="0.800000012" transform="translate(88.150847, 160.851616) rotate(91.000000) translate(-88.150847, -160.851616) "></path>
            <path d="M116.358999,58.2077892 C122.443869,49.6509864 125.483121,40.0926439 125.476756,29.5327617 C125.467207,13.6929384 121.369568,0.849757795 116.324421,0.846714902 C111.279275,0.843672009 107.197117,13.6819191 107.206665,29.5217424 C107.213031,40.0816246 110.263809,49.6436402 116.358999,58.2077892 Z" id="leaf" fill="url(#linearGradient-5)" opacity="0.800000012" transform="translate(116.341707, 29.527252) rotate(33.000000) translate(-116.341707, -29.527252) "></path>
            <path d="M44.2740128,122.302044 C50.3707125,113.739098 53.4225124,104.178616 53.4294126,93.6205978 C53.4397629,77.7835711 49.3575319,64.9477982 44.3114945,64.9510967 C39.2654571,64.9543951 35.166445,77.7955158 35.1560947,93.6325426 C35.1491945,104.19056 38.1885005,113.747061 44.2740128,122.302044 Z" id="leaf" fill="url(#linearGradient-6)" opacity="0.800000012" transform="translate(44.292758, 93.626570) rotate(-41.000000) translate(-44.292758, -93.626570) "></path>
            <path d="M27.2704525,166.439266 C33.3680335,157.877471 36.4202995,148.318292 36.4272505,137.76173 C36.4376771,121.926887 32.3549437,109.092904 27.3082104,109.096227 C22.2614771,109.09955 18.1618389,121.93892 18.1514124,137.773763 C18.1444614,148.330325 21.1841414,157.885492 27.2704525,166.439266 Z" id="leaf" fill="url(#linearGradient-7)" opacity="0.800000012" transform="translate(27.289335, 137.767746) rotate(-47.000000) translate(-27.289335, -137.767746) "></path>
        </g>
    </g>
</svg>