<svg width="123" height="88" viewBox="0 0 123 88" fill="none" xmlns="http://www.w3.org/2000/svg">
<path d="M8.95736 83.1289L15.4397 74.7625L0 87.0176C8.36806 88.903 16.1468 86.5462 28.64 80.8901C38.6345 76.3651 51.662 78.3762 56.9264 79.9474C57.28 80.6544 58.5764 82.1156 60.9336 82.3041C63.2908 82.4926 64.3516 80.8115 64.5873 79.9474C80.9934 77.9677 89.8879 79.751 92.2844 80.8901C111.613 89.28 120.217 88.3923 122.103 86.8997L106.428 74.7625L113.028 83.1289C109.61 83.1289 105.131 82.0684 92.2844 75.9409C79.4377 69.8134 67.4159 76.8836 64.2337 79.2403C61.6879 81.1257 59.0086 80.0259 57.9871 79.2403C53.3906 75.6659 41.086 70.0019 28.64 75.9409C16.194 81.8799 10.3324 83.2075 8.95736 83.1289Z" fill="#FF5076"/>
<path d="M101.589 71.7477L94.7878 65.9082L109.446 73.0323C106.827 74.4338 99.0797 76.5594 89.0419 73.8499C79.0042 71.1404 67.1918 75.3681 62.5404 77.8207C67.1136 69.6455 82.7097 68.5476 89.0419 70.2294C94.7878 71.7554 99.0093 72.0202 101.589 71.7477Z" fill="#7034B2"/>
<path d="M20.1398 71.7477L26.941 65.9082L12.2831 73.0323C14.902 74.4338 22.6492 76.5594 32.687 73.8499C42.7247 71.1404 54.5371 75.3681 59.1885 77.8207C54.6152 69.6455 39.0192 68.5476 32.687 70.2294C26.941 71.7554 22.7196 72.0202 20.1398 71.7477Z" fill="#7034B2"/>
<path d="M90.7829 64.6528L84.2016 57.7189L93.2509 62.3023L96.5415 64.1827C94.9572 65.9319 90.7829 68.4135 79.5007 68.4135C73.272 68.4135 64.9279 73.2319 62.9301 75.5823C66.5732 69.2361 71.5126 66.1428 76.6802 65.828C81.3692 65.5423 88.9301 65.5204 90.7829 64.6528Z" fill="#57B7FF"/>
<path d="M31.1401 63.6909L38.5022 55.1225L28.8253 61.0013L25.2872 63.3939C26.7516 65.407 30.8013 68.1749 42.3512 67.6588C48.7277 67.3738 56.8357 72.7372 58.6692 75.4483C55.5113 68.0483 50.7333 64.586 45.4716 64.447C40.697 64.3208 32.9587 64.6407 31.1401 63.6909Z" fill="#57B7FF"/>
<path d="M62.4638 55.3255C62.648 55.0709 63.0009 54.7938 63.4829 54.5159C66.5194 52.5916 75.2936 49.0787 81.2969 53.596C87.2125 58.0472 82.4908 62.1277 79.5638 63.3959L61.4239 71.1207C63.3881 69.622 67.3165 65.7019 70.7827 64.0878C76.6752 61.3438 80.4307 59.5555 79.2171 56.363C76.987 50.4963 66.9307 52.5278 63.4829 54.5159C62.9545 54.8508 62.5998 55.1375 62.4638 55.3255Z" fill="#E53C38"/>
<path d="M45.4285 61.1861C38.632 57.4545 42.0844 53.0621 44.5229 51.3906C42.9497 51.9737 39.305 53.8659 39.0951 56.9881C38.8208 61.0695 44.2092 63.0908 47.1984 64.1015C47.1984 64.1015 51.9125 65.8558 54.8681 67.1334C57.9084 68.4476 62.5378 70.7484 62.5378 70.7484C60.4139 67.5999 53.0982 64.5679 53.0982 64.5679C53.0982 64.5679 48.0139 62.6057 45.4285 61.1861Z" fill="#E53C38"/>
<path d="M21.6813 56.5283L39.6622 51.2398L38.0169 48.3018L21.6813 56.5283Z" fill="url(#paint0_linear_129_2)"/>
<path d="M40.3662 54.2955C38.0615 50.8076 36.4884 46.3528 36.2815 42.171C36.0746 37.9892 36.9942 33.8287 38.9433 30.1283C40.8924 26.4279 43.7988 23.3246 47.356 21.1456C50.9133 18.9666 54.9896 17.7926 59.1552 17.7474C63.3208 17.7023 67.4213 18.7876 71.0245 20.889C74.6276 22.9904 77.5999 26.03 79.6279 29.6873C81.656 33.3447 82.6646 37.4842 82.5475 41.6695C82.4304 45.8548 81.1919 49.9309 78.9626 53.4679L75.8325 51.4749C77.705 48.504 78.7452 45.0803 78.8436 41.5648C78.9419 38.0494 78.0947 34.5724 76.3913 31.5004C74.6878 28.4284 72.1912 25.8753 69.1648 24.1102C66.1383 22.3451 62.694 21.4335 59.1951 21.4714C55.6962 21.5094 52.2723 22.4954 49.2844 24.3257C46.2965 26.1559 43.8553 28.7626 42.2181 31.8708C40.581 34.9789 39.8086 38.4735 39.9823 41.986C40.1561 45.4986 41.2696 48.8989 43.2054 51.8285L41.7765 53.2378L40.3662 54.2955Z" fill="#FFD83D"/>
<path d="M18.7425 41.2499L36.6058 42.8952V38.8994L18.7425 41.2499Z" fill="url(#paint1_linear_129_2)"/>
<path d="M21.5652 25.5017L37.4307 33.8458L38.9584 30.5551L21.5652 25.5017Z" fill="url(#paint2_linear_129_2)"/>
<path d="M31.0845 12.2031L41.779 26.0707L44.3645 23.3863L31.0845 12.2031Z" fill="url(#paint3_linear_129_2)"/>
<path d="M43.6591 2.82031L49.1827 20.2136L52.4733 18.9208L43.6591 2.82031Z" fill="url(#paint4_linear_129_2)"/>
<path d="M59.7578 0L57.76 17.8634H61.6382L59.7578 0Z" fill="url(#paint5_linear_129_2)"/>
<path d="M75.0357 3.76071L66.8092 18.9211L70.2173 20.4488L75.0357 3.76071Z" fill="url(#paint6_linear_129_2)"/>
<path d="M88.7858 12.1048L74.5656 23.5044L77.1511 26.2074L88.7858 12.1048Z" fill="url(#paint7_linear_129_2)"/>
<path d="M97.7175 25.2673L80.0892 30.7908L81.4994 34.3165L97.7175 25.2673Z" fill="url(#paint8_linear_129_2)"/>
<path d="M100.656 41.1327L82.4396 39.2524V43.1306L100.656 41.1327Z" fill="url(#paint9_linear_129_2)"/>
<path d="M97.1299 56.6457L81.4994 48.0665L79.6191 51.5922L97.1299 56.6457Z" fill="url(#paint10_linear_129_2)"/>
<circle cx="59.7298" cy="42.5763" r="4.68865" fill="#E53C38"/>
<path d="M44.8585 34.1207C46.342 39.342 49.4957 41.6021 50.7885 41.9206C51.5942 41.371 52.8391 40.8249 54.0586 41.2052C54.0987 40.3121 54.9022 38.796 55.7929 38.0941C55.5041 37.6418 54.4888 36.7012 54.7174 34.8729C51.295 32.5323 46.7188 33.3962 44.8585 34.1207Z" fill="#57B7FF"/>
<path d="M59.6407 25.3848C55.8026 29.2229 55.364 33.078 55.7154 34.3623C56.5877 34.7984 57.6708 35.6198 57.9325 36.8701C58.7321 36.4703 60.4476 36.434 61.4944 36.8701C61.7488 36.3976 62.076 35.0528 63.7842 34.3623C64.1622 30.2333 61.1794 26.6569 59.6407 25.3848Z" fill="#FFBA00"/>
<path d="M74.6931 33.877C69.326 32.173 65.5817 33.6138 64.5741 34.5527C64.5947 35.5663 64.3639 36.9588 63.3442 37.7987C64.0959 38.3451 64.9559 39.9105 65.0607 41.085C65.6163 41.0936 67.0064 40.7517 68.4625 41.9972C72.4286 40.3695 74.2687 35.9055 74.6931 33.877Z" fill="#57B7FF"/>
<path d="M50.8584 27.7842C50.5385 29.0054 50.4101 31.3461 50.3859 32.3638C51.3914 32.4728 53.5916 32.8799 54.3476 33.6359C54.2604 32.3856 54.9412 30.4496 55.2926 29.6378C54.5899 29.1532 52.7193 28.104 50.8584 27.7842Z" fill="#FF5076"/>
<path d="M68.2119 27.6932C66.9826 27.9805 64.8526 28.9596 63.9413 29.4132C64.3143 30.3534 64.9814 32.4892 64.6657 33.5107C65.7307 32.8498 67.7607 32.5482 68.6426 32.48C68.7431 31.6323 68.7978 29.4883 68.2119 27.6932Z" fill="#FF5076"/>
<path d="M76.7956 42.4081C75.9019 41.5165 73.9448 40.2262 73.0779 39.6925C72.4771 40.5061 71.0168 42.2014 69.9829 42.4735C71.1068 43.0282 72.4361 44.5918 72.9602 45.3043C73.7329 44.9415 75.5817 43.8544 76.7956 42.4081Z" fill="#FF5076"/>
<path d="M42.4802 42.7513C43.3801 43.6367 45.3463 44.9132 46.2168 45.4409C46.812 44.623 48.2603 42.9175 49.2923 42.6382C48.1645 42.0914 46.8243 40.5371 46.2952 39.8283C45.5251 40.1965 43.684 41.2966 42.4802 42.7513Z" fill="#FF5076"/>
<path d="M56.5342 53.0411L63.0932 56.5729H55.5251C54.4151 56.5729 52.2153 56.4115 52.6997 54.1511C53.184 51.8908 55.4578 52.4693 56.5342 53.0411Z" fill="#E53C38"/>
<path d="M62.9899 55.5636L60.8708 54.2518L63.5954 52.94C65.3108 52.1327 66.9641 52.992 66.6838 55.1329C66.4035 57.2737 63.6128 56.1052 62.9899 55.5636Z" fill="#E53C38"/>
<path d="M62.3854 52.0322V49.9131L64.2017 52.0322C64.5044 52.4022 65.453 53.1018 66.8253 52.9403C68.0362 52.7979 67.8344 51.3763 67.1281 51.0231C66.4217 50.6699 65.8162 50.9222 65.8162 50.9222L62.3854 46.0786H60.6699V44.8677C63.0917 43.8586 61.8808 41.3359 60.8717 40.7305L60.2663 40.5286L59.6608 40.4277L59.0554 40.5286L58.4499 40.7305C56.23 42.2441 57.5418 44.565 58.4499 44.9686V46.0786H56.7345L53.1018 50.9222C53.1018 50.9222 52.5973 50.6956 51.8909 51.1621C51.1845 51.6285 51.1498 52.8429 52.4964 53.1422C53.4045 53.344 54.6827 52.7385 55.0191 52.3349L56.9363 49.9131V52.3349L59.8627 53.5458L62.3854 52.0322Z" fill="#031516"/>
<defs>
<linearGradient id="paint0_linear_129_2" x1="30.6717" y1="48.3018" x2="30.6717" y2="56.5283" gradientUnits="userSpaceOnUse">
<stop stop-color="#FFCC00"/>
<stop offset="1" stop-color="#FAB63F"/>
</linearGradient>
<linearGradient id="paint1_linear_129_2" x1="27.6741" y1="38.8994" x2="27.6741" y2="42.8952" gradientUnits="userSpaceOnUse">
<stop stop-color="#FFCC00"/>
<stop offset="1" stop-color="#FAB63F"/>
</linearGradient>
<linearGradient id="paint2_linear_129_2" x1="32.9648" y1="12.2031" x2="32.9648" y2="33.8458" gradientUnits="userSpaceOnUse">
<stop stop-color="#FFCC00"/>
<stop offset="1" stop-color="#FAB63F"/>
</linearGradient>
<linearGradient id="paint3_linear_129_2" x1="32.9648" y1="12.2031" x2="32.9648" y2="33.8458" gradientUnits="userSpaceOnUse">
<stop stop-color="#FFCC00"/>
<stop offset="1" stop-color="#FAB63F"/>
</linearGradient>
<linearGradient id="paint4_linear_129_2" x1="48.0662" y1="2.82031" x2="48.0662" y2="20.2136" gradientUnits="userSpaceOnUse">
<stop stop-color="#FFCC00"/>
<stop offset="1" stop-color="#FAB63F"/>
</linearGradient>
<linearGradient id="paint5_linear_129_2" x1="79.2078" y1="0" x2="79.2078" y2="56.6457" gradientUnits="userSpaceOnUse">
<stop stop-color="#FFCC00"/>
<stop offset="1" stop-color="#FAB63F"/>
</linearGradient>
<linearGradient id="paint6_linear_129_2" x1="79.2078" y1="0" x2="79.2078" y2="56.6457" gradientUnits="userSpaceOnUse">
<stop stop-color="#FFCC00"/>
<stop offset="1" stop-color="#FAB63F"/>
</linearGradient>
<linearGradient id="paint7_linear_129_2" x1="79.2078" y1="0" x2="79.2078" y2="56.6457" gradientUnits="userSpaceOnUse">
<stop stop-color="#FFCC00"/>
<stop offset="1" stop-color="#FAB63F"/>
</linearGradient>
<linearGradient id="paint8_linear_129_2" x1="79.2078" y1="0" x2="79.2078" y2="56.6457" gradientUnits="userSpaceOnUse">
<stop stop-color="#FFCC00"/>
<stop offset="1" stop-color="#FAB63F"/>
</linearGradient>
<linearGradient id="paint9_linear_129_2" x1="79.2078" y1="0" x2="79.2078" y2="56.6457" gradientUnits="userSpaceOnUse">
<stop stop-color="#FFCC00"/>
<stop offset="1" stop-color="#FAB63F"/>
</linearGradient>
<linearGradient id="paint10_linear_129_2" x1="79.2078" y1="0" x2="79.2078" y2="56.6457" gradientUnits="userSpaceOnUse">
<stop stop-color="#FFCC00"/>
<stop offset="1" stop-color="#FAB63F"/>
</linearGradient>
</defs>
</svg>
