<svg xmlns="http://www.w3.org/2000/svg" width="16.143" height="14.802" viewBox="0 0 16.143 14.802">
  <g id="Group_1954" data-name="Group 1954" transform="translate(11336.269 1085.802)">
    <path id="Icon_ionic-ios-arrow-down" data-name="Icon ionic-ios-arrow-down" d="M14.262,17.009l6.1-5.46a1.247,1.247,0,0,1,1.629,0,.963.963,0,0,1,0,1.46L15.079,19.2a1.252,1.252,0,0,1-1.591.03L6.524,13.014a.961.961,0,0,1,0-1.46,1.247,1.247,0,0,1,1.629,0Z" transform="translate(-11342.456 -1090.496)" fill="#fff"/>
    <path id="Icon_ionic-ios-arrow-down-2" data-name="Icon ionic-ios-arrow-down" d="M14.262,17.009l6.1-5.46a1.247,1.247,0,0,1,1.629,0,.963.963,0,0,1,0,1.46L15.079,19.2a1.252,1.252,0,0,1-1.591.03L6.524,13.014a.961.961,0,0,1,0-1.46,1.247,1.247,0,0,1,1.629,0Z" transform="translate(-11342.456 -1097.048)" fill="#fff"/>
  </g>
</svg>
