<svg xmlns="http://www.w3.org/2000/svg" xmlns:xlink="http://www.w3.org/1999/xlink" width="145" height="59" viewBox="0 0 145 59">
  <defs>
    <filter id="Rectangle_506" x="0" y="0" width="62" height="59" filterUnits="userSpaceOnUse">
      <feOffset dy="3" input="SourceAlpha"/>
      <feGaussianBlur stdDeviation="3" result="blur"/>
      <feFlood flood-opacity="0.11"/>
      <feComposite operator="in" in2="blur"/>
      <feComposite in="SourceGraphic"/>
    </filter>
  </defs>
  <g id="Group_1839" data-name="Group 1839" transform="translate(4271 -6045)">
    <g id="Group_1838" data-name="Group 1838">
      <g transform="matrix(1, 0, 0, 1, -4271, 6045)" filter="url(#Rectangle_506)">
        <rect id="Rectangle_506-2" data-name="Rectangle 506" width="44" height="41" rx="4" transform="translate(9 6)" fill="#fff"/>
      </g>
      <g id="Group_1832" data-name="Group 1832" transform="translate(-813 3116)">
        <g id="Group_1815" data-name="Group 1815" transform="translate(-3440 2942)">
          <g id="Group_1807" data-name="Group 1807" transform="translate(0.768 1.325)">
            <path id="Path_3072" data-name="Path 3072" d="M-35.119-141.984q-2.636,4.027-4.741,7.158t-3.716,5.492q-1.611,2.361-2.746,4.1t-1.849,3.039a15.089,15.089,0,0,0-1.043,2.252,5.4,5.4,0,0,0-.33,1.757,2.109,2.109,0,0,0,.4,1.281,1.363,1.363,0,0,0,1.172.549,3.755,3.755,0,0,0,1.959-.586,8.794,8.794,0,0,0,1.849-1.519,15.413,15.413,0,0,0,1.629-2.069,20.461,20.461,0,0,0,1.3-2.252,15.5,15.5,0,0,0,.86-2.087,5.358,5.358,0,0,0,.311-1.519.789.789,0,0,0-.055-.311q-.055-.128-.128-.293a2.18,2.18,0,0,1-.128-.421,3.472,3.472,0,0,1-.055-.7,2.036,2.036,0,0,1,.458-1.281,1.44,1.44,0,0,1,1.19-.586,1.781,1.781,0,0,1,1.025.275,2.006,2.006,0,0,1,.641.714,3.142,3.142,0,0,1,.33.97,6.134,6.134,0,0,1,.092,1.043,7.855,7.855,0,0,1-.22,1.757,4.627,4.627,0,0,0,1.208.824,3.557,3.557,0,0,0,1.611.384,4.2,4.2,0,0,0,2.215-.586,6.155,6.155,0,0,0,1.7-1.538l.256.22a5.611,5.611,0,0,1-1.849,1.7,4.608,4.608,0,0,1-2.325.641,3.756,3.756,0,0,1-1.593-.329,6.15,6.15,0,0,1-1.336-.842,12.2,12.2,0,0,1-1.648,3.515,12.476,12.476,0,0,1-2.581,2.782,12.2,12.2,0,0,1-3.277,1.849,10.485,10.485,0,0,1-3.734.677,4.026,4.026,0,0,1-3.057-1.062,3.98,3.98,0,0,1-1.007-2.856,4.635,4.635,0,0,1,.2-1.281,9.927,9.927,0,0,1,.732-1.721q.531-1.025,1.446-2.544t2.361-3.753q1.446-2.233,3.5-5.345t4.833-7.322Z" transform="translate(52.326 141.984)" fill="#0b5f8d"/>
          </g>
          <g id="Group_1809" data-name="Group 1809" transform="translate(1.659 13.333)">
            <path id="Path_3072-2" data-name="Path 3072" d="M-47.329-88.32a2.109,2.109,0,0,0,.4,1.281,1.363,1.363,0,0,0,1.172.549,3.755,3.755,0,0,0,1.959-.586,8.793,8.793,0,0,0,1.849-1.519,15.414,15.414,0,0,0,1.629-2.069,20.463,20.463,0,0,0,1.3-2.252A15.5,15.5,0,0,0-38.158-95a5.358,5.358,0,0,0,.311-1.519.789.789,0,0,0-.055-.311q-.055-.128-.128-.293a2.18,2.18,0,0,1-.128-.421,3.472,3.472,0,0,1-.055-.7,2.036,2.036,0,0,1,.458-1.281,1.44,1.44,0,0,1,1.19-.586,1.782,1.782,0,0,1,1.025.275,2.007,2.007,0,0,1,.641.714,3.143,3.143,0,0,1,.33.97,6.134,6.134,0,0,1,.092,1.043,7.855,7.855,0,0,1-.22,1.757,4.626,4.626,0,0,0,1.208.824,3.557,3.557,0,0,0,1.611.384,4.2,4.2,0,0,0,2.215-.586,6.155,6.155,0,0,0,1.7-1.538l.256.22a5.611,5.611,0,0,1-1.849,1.7,4.608,4.608,0,0,1-2.325.641,3.756,3.756,0,0,1-1.593-.329,6.15,6.15,0,0,1-1.336-.842,12.2,12.2,0,0,1-1.648,3.515,12.476,12.476,0,0,1-2.581,2.782,12.205,12.205,0,0,1-3.277,1.849,10.486,10.486,0,0,1-3.734.677A4.026,4.026,0,0,1-49.1-87.112C-49.776-87.819-47.329-88.857-47.329-88.32Z" transform="translate(49.222 100.109)" fill="#f54c40"/>
          </g>
          <rect id="Rectangle_493" data-name="Rectangle 493" width="25.639" height="3.581" rx="1.791" transform="translate(0.026 0.229)" fill="#0b5f8d"/>
          <path id="Path_3073" data-name="Path 3073" d="M2.186,0H23.479a2.18,2.18,0,0,1,2.186,2.174c0,1.2-.856.026-3.208,0s-18.461.008-20.1,0S0,3.375,0,2.174A2.18,2.18,0,0,1,2.186,0Z" transform="translate(0 0)" fill="#f54c40"/>
        </g>
      </g>
    </g>
    <text id="tBook" transform="translate(-4208 6082)" fill="#303535" font-size="28" font-family="Okra-SemiBold, Okra" font-weight="600"><tspan x="0" y="0">tBook</tspan></text>
  </g>
</svg>
